<?xml version="1.0" encoding="UTF-8"?>
<svg version="1.1" xmlns="http://www.w3.org/2000/svg" width="512" height="512">
<path d="M0 0 C1.34761508 -0.00302672 2.69522844 -0.00691879 4.04283881 -0.01159257 C7.71737146 -0.02181451 11.39180592 -0.01970567 15.06634641 -0.01541197 C19.04058443 -0.01293409 23.01479946 -0.0219721 26.98902893 -0.02944946 C34.76439509 -0.04216961 42.53972666 -0.04399347 50.31510147 -0.0416492 C56.63908512 -0.03986268 62.96305831 -0.04162283 69.28704071 -0.04587364 C70.1887626 -0.04646883 71.0904845 -0.04706402 72.01953129 -0.04767724 C73.85168745 -0.04888906 75.68384361 -0.0501032 77.51599976 -0.05131962 C94.68131896 -0.06218506 111.84661849 -0.06003753 129.01193878 -0.05393478 C144.69215724 -0.0487679 160.37231354 -0.06001679 176.05251971 -0.07903299 C192.1770932 -0.09843722 208.30163732 -0.10666278 224.42622256 -0.10290974 C233.46922015 -0.10100144 242.51216486 -0.1034489 251.55515289 -0.11762428 C259.25466295 -0.12957212 266.95408757 -0.13090506 274.65359887 -0.11883412 C278.57650532 -0.1129689 282.49925576 -0.11178008 286.42215157 -0.12383652 C290.0235198 -0.13477546 293.62460331 -0.13149828 297.22595868 -0.11757483 C299.12411418 -0.11372006 301.02228273 -0.12440925 302.92040753 -0.13587171 C315.167854 -0.05992491 326.95608974 2.11078266 338.30145264 6.82319641 C339.56130981 7.34091614 339.56130981 7.34091614 340.84661865 7.86909485 C355.04328458 13.91480287 366.57191527 22.31861334 377.36395264 33.26069641 C378.18508545 34.07151672 379.00621826 34.88233704 379.85223389 35.71772766 C388.3911563 44.61059504 394.25361231 55.31587661 399.23895264 66.51069641 C399.51303955 67.12316223 399.78712646 67.73562805 400.06951904 68.36665344 C404.45855125 78.67311456 405.80474148 88.24471564 405.75836182 99.41477966 C405.76326002 100.81871936 405.76945409 102.22265502 405.77681971 103.62658393 C405.79312521 107.45690882 405.79092059 111.28702662 405.78544474 115.11737394 C405.78276281 119.25935571 405.79732823 123.40128371 405.80953979 127.54324341 C405.83054853 135.64815532 405.83513721 143.75299563 405.83335191 151.85793157 C405.83204174 158.4507817 405.83586141 165.04360959 405.84327698 171.63645554 C405.8453763 173.53914098 405.8474739 175.44182642 405.8495698 177.34451187 C405.85113509 178.76528814 405.85113509 178.76528814 405.852732 180.21476696 C405.87161672 198.11170617 405.87058989 216.00860435 405.86376268 233.90554939 C405.85819113 250.25050866 405.87899923 266.595311 405.91212314 282.9402336 C405.94592205 299.74961188 405.96102059 316.55891511 405.95640612 333.36832798 C405.95416735 342.79484123 405.9593172 352.22120954 405.98429871 361.64769363 C406.00539232 369.67510639 406.00882456 377.70229475 405.98999912 385.72971697 C405.98088985 389.81903781 405.9795487 393.90794121 406.00035477 397.99722862 C406.1497199 429.38812703 406.1497199 429.38812703 400.36395264 443.26069641 C400.03658363 444.09703676 399.70921463 444.93337711 399.37192535 445.79506111 C394.349027 457.7733538 386.70853821 469.26501582 377.36395264 478.26069641 C376.50350342 479.13854797 376.50350342 479.13854797 375.62567139 480.03413391 C371.39247627 484.34085847 366.99188476 488.38153303 362.36395264 492.26069641 C361.51123779 492.99932922 361.51123779 492.99932922 360.64129639 493.75288391 C348.02985748 504.00833973 328.80409411 512.36625743 312.51194191 512.39491749 C311.33384945 512.39937533 310.15575698 512.40383318 308.94196475 512.40842611 C307.00644796 512.40814956 307.00644796 512.40814956 305.03182983 512.40786743 C303.64402138 512.41116829 302.25621389 512.41489432 300.86840761 512.41900891 C297.05493015 512.4290122 293.24146843 512.43274302 289.42797971 512.43539822 C285.31457938 512.43930634 281.20119146 512.44888446 277.08779907 512.45761108 C267.15275877 512.47736313 257.21771747 512.48744098 247.28266245 512.49633887 C242.60048294 512.50072461 237.91830456 512.50609075 233.23612595 512.51132774 C217.6645182 512.52834022 202.09291116 512.54283279 186.52129555 512.55007648 C182.48138045 512.55198629 178.44146537 512.55390663 174.40155029 512.55586243 C173.39748466 512.55634617 172.39341904 512.55682991 171.35892718 512.55732831 C155.10602919 512.56562259 138.85320494 512.59094925 122.60033913 512.6234431 C105.90191369 512.65655462 89.20352566 512.67452902 72.50506723 512.67772073 C63.13443134 512.67988224 53.76390293 512.68857808 44.3932991 512.7141819 C36.41000293 512.73594502 28.42684035 512.74391189 20.44351788 512.73421512 C16.37478501 512.72968636 12.30632743 512.73147288 8.23763275 512.75097656 C4.5027379 512.76872437 0.76831678 512.76751783 -2.96658392 512.75207927 C-4.93661942 512.748615 -6.90666058 512.76464242 -8.87662542 512.78168374 C-20.8071305 512.69666718 -32.08111396 509.91679281 -42.94854736 504.94819641 C-43.61676514 504.64679749 -44.28498291 504.34539856 -44.97344971 504.03486633 C-50.69173256 501.37634214 -55.72550102 498.23268268 -60.63604736 494.26069641 C-61.16939697 493.83127747 -61.70274658 493.40185852 -62.2522583 492.95942688 C-71.69771986 485.29190357 -80.4352017 477.13671657 -87.63604736 467.26069641 C-88.29153564 466.38864563 -88.29153564 466.38864563 -88.96026611 465.49897766 C-92.35640435 460.70156748 -95.1138329 455.65130931 -97.69854736 450.38569641 C-98.17264038 449.46204285 -98.17264038 449.46204285 -98.65631104 448.51972961 C-107.24039078 430.4823798 -107.3724138 411.89388706 -107.28967071 392.3502419 C-107.27822459 388.34059008 -107.29588467 384.3310415 -107.30957031 380.32141113 C-107.33166768 372.49225612 -107.3270623 364.66334234 -107.31250711 356.83417833 C-107.30116124 350.46463776 -107.29970693 344.09516425 -107.30512619 337.72561646 C-107.30589236 336.81503193 -107.30665852 335.9044474 -107.3074479 334.9662694 C-107.30904672 333.11576043 -107.31066779 331.26525147 -107.31231086 329.41474253 C-107.3265288 312.10996862 -107.31023797 294.80532769 -107.28330903 277.5005756 C-107.26097386 262.68991784 -107.2648551 247.87945611 -107.28790283 233.06880188 C-107.314731 215.82101837 -107.32515588 198.57335107 -107.30984151 181.3255496 C-107.30824896 179.48229188 -107.30667711 177.63903413 -107.30512619 175.79577637 C-107.30435481 174.88913417 -107.30358343 173.98249196 -107.30278868 173.04837576 C-107.29849268 166.69511451 -107.30571263 160.34192769 -107.31752396 153.98867798 C-107.33162579 146.23378191 -107.32758909 138.4791385 -107.30112024 130.72427094 C-107.28808439 126.77642442 -107.28265178 122.82899732 -107.299366 118.88115501 C-107.4313708 84.82867784 -100.29960738 59.33418656 -77.63604736 33.26069641 C-77.1088208 32.64839172 -76.58159424 32.03608704 -76.03839111 31.40522766 C-56.7026562 10.58593252 -27.89008837 -0.085691 0 0 Z " fill="#24212C" transform="translate(106.63604736328125,-0.2606964111328125)"/>
<path d="M0 0 C7.68307546 6.47151356 12.16580978 16.20578325 13.48117065 26.09280396 C13.63735232 29.64364843 13.64657268 33.16106907 13.58984375 36.71484375 C13.58823746 38.01956131 13.58663116 39.32427887 13.5849762 40.66853333 C13.57889414 44.15262286 13.54060529 47.63561715 13.49438477 51.11937714 C13.45985147 54.02117054 13.44456966 56.92295232 13.42865562 59.82489777 C13.33174249 76.6253379 12.89881007 93.37539864 11.75488281 110.1394043 C11.02817225 121.00140438 10.77844906 131.84325925 10.73168945 142.72930908 C10.72316254 144.61178571 10.70961187 146.49424727 10.69067383 148.37664795 C10.66694053 150.98572467 10.66409574 153.59396014 10.66796875 156.203125 C10.65883957 156.97636108 10.64971039 157.74959717 10.64030457 158.54626465 C10.68089631 163.3380188 11.41464434 166.67655878 14.03125 170.7109375 C19.07981666 173.62525224 23.70969137 174.28806564 29.46875 174.5234375 C30.63748657 174.58023682 30.63748657 174.58023682 31.82983398 174.63818359 C39.72993578 174.91481908 47.23312597 173.89813886 55.03125 172.7109375 C57.08968461 172.48268366 59.1482003 172.2551168 61.20727539 172.03271484 C82.29370395 169.63002505 103.23916823 166.56233027 124.03369141 162.31054688 C129.22862106 161.2713917 134.44219281 160.33598955 139.65625 159.3984375 C142.75 158.8415625 145.84375 158.2846875 149.03125 157.7109375 C149.03125 171.2409375 149.03125 184.7709375 149.03125 198.7109375 C148.04125 198.3809375 147.05125 198.0509375 146.03125 197.7109375 C144.09163215 198.34357165 144.09163215 198.34357165 141.96875 199.40234375 C134.28065318 202.63673275 126.17726425 204.02673068 118.03125 205.6484375 C117.18065002 205.82046692 116.33005005 205.99249634 115.45367432 206.16973877 C98.0689031 209.67701835 80.62342794 212.47848821 63.03125 214.7109375 C62.00386719 214.84226074 60.97648437 214.97358398 59.91796875 215.10888672 C41.52421803 217.37630447 22.00174904 219.00964173 4.03125 213.7109375 C2.86980469 213.39769531 1.70835937 213.08445312 0.51171875 212.76171875 C-11.71765328 209.28918101 -20.67520809 202.21363786 -27.96875 191.7109375 C-28.65001446 190.05018437 -29.31538258 188.38286251 -29.96875 186.7109375 C-30.29875 186.01355469 -30.62875 185.31617188 -30.96875 184.59765625 C-36.79154453 171.79205734 -36.29650573 156.94645853 -36.22949219 143.14038086 C-36.21883119 140.5432157 -36.22942633 137.94675296 -36.2421875 135.34960938 C-36.25000659 125.74204252 -35.75393695 116.31274277 -34.74911499 106.75894165 C-33.67079191 96.3274246 -33.27150413 85.87317599 -32.84375 75.3984375 C-32.75700939 73.37432751 -32.6697718 71.35023876 -32.58203125 69.32617188 C-32.37190949 64.45465129 -32.16839159 59.58289836 -31.96875 54.7109375 C-35.57360001 58.28041633 -38.9653593 61.94591208 -42.21875 65.8359375 C-42.93708008 66.68961914 -42.93708008 66.68961914 -43.66992188 67.56054688 C-47.37019633 71.96844353 -51.01368553 76.42149556 -54.64453125 80.88671875 C-57.2794671 84.08849794 -59.96585937 87.24331003 -62.65625 90.3984375 C-69.60749301 98.40328927 -69.60749301 98.40328927 -75.34375 107.2734375 C-77.41925881 110.38670071 -80.0166253 112.42893775 -82.859375 114.8359375 C-89.97221644 121.15846322 -96.13258909 129.23602824 -101.578125 137.0078125 C-102.03703125 137.56984375 -102.4959375 138.131875 -102.96875 138.7109375 C-103.62875 138.7109375 -104.28875 138.7109375 -104.96875 138.7109375 C-105.29875 139.7009375 -105.62875 140.6909375 -105.96875 141.7109375 C-107.60088757 143.19104819 -109.29965189 144.59852468 -111.03125 145.9609375 C-114.3905547 148.62002907 -117.59131008 151.28409027 -120.65625 154.2734375 C-126.47246682 159.45956416 -133.93573477 162.50656329 -140.96875 165.7109375 C-141.81695312 166.10925781 -142.66515625 166.50757813 -143.5390625 166.91796875 C-151.1439003 169.3999335 -160.39128459 168.52784792 -167.5859375 165.16796875 C-179.62471997 157.8065493 -183.70841925 148.85820083 -187.09375 135.7109375 C-187.34511719 134.76476562 -187.59648437 133.81859375 -187.85546875 132.84375 C-188.57184997 130.13575398 -189.27272445 127.42422687 -189.96875 124.7109375 C-190.16525146 123.9593335 -190.36175293 123.20772949 -190.56420898 122.43334961 C-191.52043165 118.72268051 -192.27970566 115.07084464 -192.78125 111.2734375 C-193.94731778 103.2436862 -195.62685632 95.32032683 -197.29223633 87.38110352 C-197.50775146 86.33494873 -197.7232666 85.28879395 -197.9453125 84.2109375 C-198.14205566 83.2725 -198.33879883 82.3340625 -198.54150391 81.3671875 C-198.96026727 78.76367586 -199.04681662 76.34255722 -198.96875 73.7109375 C-208.5195254 82.66478943 -215.78726168 93.87257392 -223.36132812 104.47314453 C-224.86852239 106.57140435 -226.39139379 108.65697217 -227.921875 110.73828125 C-228.3751416 111.35928711 -228.8284082 111.98029297 -229.29541016 112.62011719 C-230.508604 114.28181406 -231.72677283 115.93987554 -232.9453125 117.59765625 C-235.08009069 120.68541868 -235.08009069 120.68541868 -236.4921875 124.29296875 C-237.95922419 127.68888702 -239.59323407 129.90764667 -241.96875 132.7109375 C-243.2047081 134.52576205 -244.41324043 136.35956566 -245.59375 138.2109375 C-246.18414062 139.12875 -246.77453125 140.0465625 -247.3828125 140.9921875 C-248.85637469 143.51829411 -249.89156781 146.00166107 -250.96875 148.7109375 C-252.30208333 150.04427083 -253.63541667 151.37760417 -254.96875 152.7109375 C-256.27750511 154.71769534 -257.50181577 156.76604711 -258.734375 158.8203125 C-260.21350143 161.08580995 -262.0617735 162.803961 -263.96875 164.7109375 C-264.33037029 166.03687855 -264.66603039 167.37032207 -264.96875 168.7109375 C-265.94725195 169.73198301 -266.94855427 170.7315496 -267.96875 171.7109375 C-268.66091095 173.03121605 -269.33095264 174.36355606 -269.96875 175.7109375 C-268.84645996 175.71014191 -267.72416992 175.70934631 -266.56787109 175.70852661 C-255.97452331 175.70491922 -245.38165993 175.73278732 -234.78846741 175.7912159 C-229.34274911 175.82024804 -223.8974606 175.8383148 -218.45166016 175.83105469 C-213.19287558 175.82445178 -207.93493957 175.84700181 -202.67633057 175.88949203 C-200.67339093 175.90060604 -198.67036506 175.90133885 -196.66741943 175.89136124 C-193.85416973 175.87914702 -191.04349366 175.90434336 -188.23046875 175.93798828 C-187.40831375 175.92576736 -186.58615875 175.91354645 -185.73908997 175.9009552 C-179.39750316 176.03700052 -175.4971679 178.30572445 -170.96875 182.7109375 C-169.7707897 185.10685809 -169.829984 186.61435492 -169.80812073 189.29037476 C-169.7980751 190.25497116 -169.78802948 191.21956757 -169.77767944 192.21339417 C-169.77184845 193.27525436 -169.76601746 194.33711456 -169.76000977 195.43115234 C-169.75022598 196.54667984 -169.7404422 197.66220734 -169.73036194 198.8115387 C-169.70036704 202.51497188 -169.67901378 206.21836895 -169.66015625 209.921875 C-169.65358442 211.18379292 -169.6470126 212.44571083 -169.64024162 213.74586868 C-169.61434915 219.04735889 -169.59085889 224.34883463 -169.57574558 229.65036583 C-169.55382653 237.25021737 -169.51182726 244.84936352 -169.44230801 252.44893301 C-169.38940172 258.43544022 -169.36926794 264.42162172 -169.36054802 270.40837479 C-169.35196316 272.95617783 -169.33307138 275.50396727 -169.3038044 278.05161667 C-169.26509507 281.61228741 -169.2638292 285.17110414 -169.27172852 288.73193359 C-169.2417276 290.3186512 -169.2417276 290.3186512 -169.21112061 291.93742371 C-169.28099033 298.93103812 -169.28099033 298.93103812 -172.30818176 302.36378479 C-177.3662515 304.22524233 -181.88207605 304.277438 -187.23486328 304.24438477 C-188.36072845 304.25300034 -189.48659363 304.26161591 -190.64657593 304.27049255 C-194.36097316 304.29316098 -198.07461671 304.28641297 -201.7890625 304.27734375 C-204.37165552 304.2825779 -206.95424663 304.28885361 -209.53683472 304.29612732 C-214.94539407 304.30653246 -220.35366583 304.30229627 -225.76220703 304.28735352 C-232.01205605 304.27040971 -238.26120776 304.28630242 -244.51098073 304.3185764 C-250.53066394 304.34848246 -256.54999176 304.35046021 -262.56975937 304.3410778 C-265.12868025 304.34025637 -267.68761547 304.34715624 -270.24649429 304.36184883 C-273.81865992 304.37921893 -277.38932142 304.36481399 -280.96142578 304.34204102 C-282.02230408 304.35373322 -283.08318237 304.36542542 -284.1762085 304.37747192 C-291.34536042 304.28422389 -291.34536042 304.28422389 -294.59420776 301.29649353 C-296.42641883 297.85004842 -297.09465407 296.05316789 -297.10246277 292.16273499 C-297.10672775 291.20510757 -297.11099274 290.24748016 -297.11538696 289.26083374 C-297.11493378 288.20675323 -297.11448059 287.15267273 -297.11401367 286.06665039 C-297.11737228 284.95927017 -297.1207309 283.85188995 -297.12419128 282.71095276 C-297.13372264 279.03515514 -297.13564545 275.35940297 -297.13671875 271.68359375 C-297.13992967 269.13773072 -297.14329361 266.59186788 -297.14680481 264.04600525 C-297.15280145 258.703598 -297.15468685 253.3612078 -297.15405273 248.01879883 C-297.15345181 241.8408074 -297.16400596 235.66290325 -297.1797964 229.48493391 C-297.19443737 223.54543376 -297.1980411 217.60596034 -297.19744301 211.66644096 C-297.19862628 209.13740113 -297.20306734 206.60836071 -297.21077538 204.07933235 C-297.22053155 200.54768681 -297.21771455 197.01626805 -297.21166992 193.48461914 C-297.21728943 192.43256287 -297.22290894 191.38050659 -297.22869873 190.29656982 C-297.22450424 189.33612259 -297.22030975 188.37567535 -297.21598816 187.38612366 C-297.21653293 186.55081147 -297.21707769 185.71549929 -297.21763897 184.85487461 C-296.96875 182.7109375 -296.96875 182.7109375 -294.96875 179.7109375 C-294.4971802 177.22944521 -294.09130081 174.76923685 -293.71875 172.2734375 C-292.44153398 164.60406765 -289.75696661 158.51083879 -285.96875 151.7109375 C-284.94909573 149.38612576 -283.94815398 147.05299051 -282.96875 144.7109375 C-278.89522679 135.41680371 -274.38547915 126.3445433 -269.84375 117.2734375 C-269.46847168 116.52315277 -269.09319336 115.77286804 -268.70654297 114.99984741 C-260.68803494 98.98947728 -252.29491587 83.25537774 -242.953125 67.97265625 C-241.73328386 65.96760241 -240.53113993 63.95149285 -239.359375 61.91796875 C-233.30831206 51.42620639 -222.72348159 34.71115922 -210.59375 30.98046875 C-200.24049298 29.17789275 -189.77591077 28.19710565 -179.96875 32.7109375 C-177.21875 34.9609375 -177.21875 34.9609375 -174.96875 37.7109375 C-174.50082031 38.2265625 -174.03289062 38.7421875 -173.55078125 39.2734375 C-167.17027775 46.35924087 -162.49965362 53.48239871 -159.96875 62.7109375 C-158.84990284 66.64400286 -157.71758276 70.57236537 -156.56640625 74.49609375 C-152.3709294 88.86353339 -148.69315574 102.67327355 -147.96875 117.7109375 C-146.97875 117.7109375 -145.98875 117.7109375 -144.96875 117.7109375 C-144.71480469 117.12828125 -144.46085938 116.545625 -144.19921875 115.9453125 C-142.83554667 113.46905717 -141.32649797 111.90573124 -139.28125 109.9609375 C-135.96952692 106.73245342 -132.88801846 103.40449534 -129.875 99.8984375 C-127.65929352 97.35582351 -125.37776408 94.87983552 -123.09375 92.3984375 C-119.0031444 87.91296198 -115.12057157 83.30513206 -111.30859375 78.58203125 C-108.78141034 75.48106329 -106.19237669 72.43938362 -103.59375 69.3984375 C-98.34044433 63.2278443 -93.3255403 56.88762758 -88.35253906 50.49023438 C-81.33684504 41.46934905 -74.2352489 32.53176772 -66.96875 23.7109375 C-65.40596136 21.79450617 -63.84346047 19.87784016 -62.28125 17.9609375 C-61.53101563 17.05085938 -60.78078125 16.14078125 -60.0078125 15.203125 C-58.81539965 13.74573151 -57.63649049 12.27671476 -56.4921875 10.78125 C-49.81789701 2.31153634 -40.22859947 -4.81020427 -29.59375 -6.9765625 C-18.43068339 -7.93889583 -9.32325963 -6.72981769 0 0 Z " fill="#CD2428" transform="translate(362.96875,147.2890625)"/>
<path d="M0 0 C1.42076587 0.00113192 2.84153406 0.00048792 4.26229858 -0.00177002 C8.07147737 -0.0029047 11.88013902 0.02039904 15.68919897 0.04852581 C19.68763867 0.07375055 23.68609384 0.07589789 27.68460083 0.08062744 C35.23493156 0.09299595 42.78502704 0.12573335 50.33525479 0.1660254 C58.93997728 0.21093536 67.54471178 0.23277819 76.14952254 0.25280714 C93.83044593 0.29447243 111.51115123 0.36470353 129.19189453 0.45410156 C129.31779464 5.26968391 129.4072843 10.08425897 129.46655273 14.90112305 C129.49132072 16.53117605 129.52514584 18.16112275 129.5690918 19.79077148 C130.205076 44.02551085 121.23947392 64.67531162 106.19189453 83.45410156 C104.55383927 85.14889669 102.8899606 86.81943732 101.19189453 88.45410156 C100.61826172 89.03933594 100.04462891 89.62457031 99.45361328 90.22753906 C95.22041816 94.53426362 90.81982665 98.57493819 86.19189453 102.45410156 C85.62341797 102.94652344 85.05494141 103.43894531 84.46923828 103.94628906 C71.41157518 114.5646085 52.05740567 122.58698324 35.25065613 122.57435608 C34.22131808 122.57563772 34.22131808 122.57563772 33.17118531 122.57694525 C30.87882654 122.57858834 28.58654145 122.57309789 26.29418945 122.56762695 C24.64815269 122.5673448 23.00211579 122.56750336 21.3560791 122.56806946 C16.8916305 122.56835634 12.42720877 122.56247712 7.96276641 122.5554955 C3.2955983 122.54924392 -1.37157042 122.54865673 -6.03874207 122.54747009 C-14.87486533 122.54436211 -23.71097623 122.53615588 -32.54709405 122.5261206 C-42.60747639 122.51494295 -52.66785932 122.50944485 -62.72824633 122.50442517 C-83.42153962 122.49397283 -104.11482176 122.47638368 -124.80810547 122.45410156 C-124.47810547 121.46410156 -124.14810547 120.47410156 -123.80810547 119.45410156 C-123.14810547 119.45410156 -122.48810547 119.45410156 -121.80810547 119.45410156 C-121.80810547 118.13410156 -121.80810547 116.81410156 -121.80810547 115.45410156 C-120.81810547 114.95910156 -120.81810547 114.95910156 -119.80810547 114.45410156 C-119.33373047 113.34035156 -118.85935547 112.22660156 -118.37060547 111.07910156 C-116.97611252 107.84387793 -116.26134632 106.70290568 -113.80810547 104.45410156 C-113.31310547 103.62910156 -112.81810547 102.80410156 -112.30810547 101.95410156 C-110.80810547 99.45410156 -110.80810547 99.45410156 -109.30029297 98.04394531 C-107.18764272 95.79303261 -106.69053165 93.40729613 -105.84716797 90.48925781 C-104.80810547 88.45410156 -104.80810547 88.45410156 -102.42529297 86.62988281 C-99.19493377 83.94434539 -98.04366352 81.38586805 -96.30810547 77.57910156 C-93.98411304 72.5035898 -91.4353889 68.68499204 -87.80810547 64.45410156 C-86.53946276 62.47890629 -85.310507 60.4777085 -84.12060547 58.45410156 C-80.76782023 52.89369492 -77.16534797 47.61047518 -73.30932617 42.38769531 C-71.29356428 39.63517715 -69.47084526 36.91041297 -67.84716797 33.90722656 C-65.85294715 30.33919358 -63.33351881 27.44190355 -60.43310547 24.57910156 C-59.91562744 24.06661865 -59.39814941 23.55413574 -58.86499023 23.02612305 C-42.88723709 7.73860503 -21.97193291 -0.24377978 0 0 Z " fill="#CA1D12" transform="translate(382.80810546875,389.5458984375)"/>
<path d="M0 0 C0.9335733 -0.01004562 1.86714661 -0.02009125 2.82901001 -0.03044128 C3.85653381 -0.03627228 4.88405762 -0.04210327 5.94271851 -0.04811096 C7.02256012 -0.05789474 8.10240173 -0.06767853 9.21496582 -0.07775879 C12.80177571 -0.10776223 16.38854811 -0.12911404 19.97543335 -0.14796448 C21.19926098 -0.1545363 22.42308861 -0.16110813 23.68400192 -0.1678791 C29.49535999 -0.19713098 35.30670234 -0.22104557 41.11810839 -0.23831123 C47.15104063 -0.25662065 53.18345935 -0.28991322 59.21615601 -0.34693909 C65.6894595 -0.40712752 72.16227517 -0.4378748 78.63584518 -0.44757271 C81.10219365 -0.45613236 83.56852892 -0.47496275 86.03471756 -0.50431633 C89.49160724 -0.5432401 92.94659908 -0.54426302 96.40365601 -0.53639221 C97.41903442 -0.55639282 98.43441284 -0.57639343 99.4805603 -0.59700012 C106.41879149 -0.52624385 110.65773711 1.16294193 115.56137085 6.16062927 C116.75933115 8.55654987 116.70013685 10.0640467 116.72200012 12.74006653 C116.73204575 13.70466293 116.74209137 14.66925934 116.75244141 15.66308594 C116.7582724 16.72494614 116.76410339 17.78680634 116.77011108 18.88084412 C116.77989487 19.99637161 116.78967865 21.11189911 116.79975891 22.26123047 C116.82975381 25.96466366 116.85110706 29.66806072 116.8699646 33.37156677 C116.87653643 34.63348469 116.88310825 35.8954026 116.88987923 37.19556046 C116.9157717 42.49705066 116.93926195 47.7985264 116.95437527 53.1000576 C116.97629432 60.69990914 117.01829359 68.29905529 117.08781284 75.89862478 C117.14071913 81.88513199 117.16085291 87.87131349 117.16957283 93.85806656 C117.17815769 96.4058696 117.19704947 98.95365904 117.22631645 101.50130844 C117.26502578 105.06197918 117.26629165 108.62079592 117.25839233 112.18162537 C117.28839325 113.76834297 117.28839325 113.76834297 117.31900024 115.38711548 C117.24913052 122.38072989 117.24913052 122.38072989 114.22193909 125.81347656 C109.16386935 127.67493411 104.6480448 127.72712977 99.29525757 127.69407654 C98.1693924 127.70269211 97.04352722 127.71130768 95.88354492 127.72018433 C92.16914769 127.74285275 88.45550414 127.73610474 84.74105835 127.72703552 C82.15846532 127.73226968 79.57587422 127.73854539 76.99328613 127.74581909 C71.58472678 127.75622423 66.17645502 127.75198804 60.76791382 127.73704529 C54.5180648 127.72010148 48.26891309 127.73599419 42.01914012 127.76826817 C35.99945691 127.79817423 29.98012909 127.80015198 23.96036148 127.79076958 C21.4014406 127.78994814 18.84250538 127.79684802 16.28362656 127.8115406 C12.71146093 127.8289107 9.14079943 127.81450577 5.56869507 127.79173279 C4.50781677 127.80342499 3.44693848 127.81511719 2.35391235 127.8271637 C-4.81523957 127.73391567 -4.81523957 127.73391567 -8.06408691 124.7461853 C-9.89084119 121.31000457 -10.56588769 119.50419976 -10.58580017 115.62588501 C-10.59295547 114.67114792 -10.60011078 113.71641083 -10.60748291 112.73274231 C-10.61017181 111.68180389 -10.61286072 110.63086548 -10.6156311 109.54808044 C-10.6222023 108.44391281 -10.6287735 107.33974518 -10.63554382 106.20211792 C-10.65530876 102.535944 -10.66694599 98.86981107 -10.6769104 95.20359802 C-10.68098593 93.95396082 -10.68506145 92.70432362 -10.68926048 91.41681862 C-10.70797995 85.48639136 -10.72254324 79.5559772 -10.73087245 73.62552756 C-10.74064429 66.78098039 -10.76696188 59.93675668 -10.80737334 53.09232348 C-10.84117671 47.16351796 -10.85301785 41.23479168 -10.85707664 35.30588722 C-10.86195671 32.7840639 -10.87361077 30.26224439 -10.89211464 27.74048424 C-10.9163852 24.21384617 -10.91556281 20.68805719 -10.90859985 17.16136169 C-10.92140991 16.11649597 -10.93421997 15.07163025 -10.94741821 13.99510193 C-10.89635333 6.9117473 -10.89635333 6.9117473 -8.53425598 3.0355835 C-5.53799573 0.35483389 -3.92378757 0.03313391 0 0 Z " fill="#FAFAFA" transform="translate(76.43862915039063,323.83937072753906)"/>
<path d="M0 0 C28.05 0 56.1 0 85 0 C85 28.05 85 56.1 85 85 C56.95 85 28.9 85 0 85 C0 56.95 0 28.9 0 0 Z " fill="#27252F" transform="translate(87,345)"/>
<path d="M0 0 C1.11289902 -0.00890762 2.22579803 -0.01781525 3.37242126 -0.0269928 C7.04510409 -0.04827418 10.71603217 -0.02596682 14.38867188 -0.0012207 C16.94405293 -0.00272313 19.49943352 -0.00615317 22.05480957 -0.01142883 C27.4080504 -0.0157606 32.7606709 0.00045462 38.11376953 0.03320312 C44.29318517 0.07069537 50.47164799 0.06891698 56.65111399 0.04616195 C62.60778787 0.02517666 68.56416976 0.03260235 74.52085876 0.0524807 C77.0502001 0.05832901 79.57956842 0.0570304 82.10890198 0.04845619 C85.64482537 0.04046162 89.17909606 0.06471684 92.71484375 0.09765625 C93.75918076 0.08910614 94.80351776 0.08055603 95.87950134 0.07174683 C100.25929563 0.14213601 103.84780136 0.22716579 107.50828552 2.81044006 C110.41170615 6.4565712 110.6903294 9.14311436 110.58618164 13.62426758 C110.59187668 14.40046448 110.59757172 15.17666138 110.60343933 15.97637939 C110.61452236 18.53295862 110.58252476 21.08696019 110.54882812 23.64331055 C110.54525036 25.42259419 110.54389374 27.20188358 110.54466248 28.98117065 C110.53997529 32.7053386 110.51516359 36.42863832 110.47485352 40.15258789 C110.42380889 44.92897889 110.41241291 49.70441866 110.41468906 54.48105049 C110.41387395 58.15279237 110.39743177 61.82432578 110.37568474 65.49599838 C110.36613212 67.25746967 110.36022424 69.01896457 110.35800362 70.78046036 C110.35150839 73.23922367 110.3252721 75.69697196 110.29321289 78.15551758 C110.29457245 78.88493561 110.29593201 79.61435364 110.29733276 80.36587524 C110.24229035 83.24826933 110.17974158 85.2807697 108.54698181 87.71090698 C105.69807549 89.48070902 102.60299171 89.19113639 99.35742188 89.13549805 C98.68066406 89.14709961 98.00390625 89.15870117 97.30664062 89.1706543 C92.42339266 89.14175934 92.42339266 89.14175934 90.16191101 87.61833191 C88.27513989 84.93122078 88.49730329 82.90030198 88.5168457 79.63671875 C88.51720825 78.35800903 88.5175708 77.07929932 88.51794434 75.76184082 C88.53305088 74.40331585 88.54855061 73.04479519 88.56445312 71.6862793 C88.56747437 70.45083374 88.57049561 69.21538818 88.5736084 67.94250488 C88.58932653 63.31925119 88.63121032 58.69611639 88.66992188 54.07299805 C88.73179687 43.73987305 88.79367188 33.40674805 88.85742188 22.76049805 C60.80742187 22.76049805 32.75742188 22.76049805 3.85742188 22.76049805 C3.85742188 50.81049805 3.85742188 78.86049805 3.85742188 107.76049805 C15.40742187 107.76049805 26.95742187 107.76049805 38.85742188 107.76049805 C39.84742188 108.42049805 40.83742187 109.08049805 41.85742188 109.76049805 C41.66992188 111.51049805 41.66992188 111.51049805 40.85742188 113.76049805 C40.07858643 114.34959961 39.29975098 114.93870117 38.49731445 115.5456543 C35.58841864 117.9861891 34.54350619 120.10965051 32.80664062 123.44799805 C30.78500689 126.29849687 29.25919289 128.33164824 25.83843994 129.37817383 C20.71909351 130.17136771 15.60233553 130.06551897 10.4387207 129.86499023 C7.66495497 129.7603106 4.90056233 129.74197087 2.125 129.73706055 C0.35472864 129.7082374 -1.41547165 129.67455105 -3.18554688 129.63549805 C-4.00959518 129.62679687 -4.83364349 129.6180957 -5.68266296 129.60913086 C-6.45729385 129.57400391 -7.23192474 129.53887695 -8.0300293 129.50268555 C-8.7053923 129.48061035 -9.38075531 129.45853516 -10.07658386 129.43579102 C-13.60886637 128.28122559 -14.95904699 126.77562624 -17.14257812 123.76049805 C-17.8897274 120.02637783 -17.83586468 116.34586238 -17.80541992 112.54785156 C-17.81578781 111.41559143 -17.8261557 110.2833313 -17.83683777 109.11676025 C-17.86394188 105.37393956 -17.85423764 101.63228783 -17.84179688 97.8894043 C-17.84770427 95.287752 -17.85495034 92.68610242 -17.86347961 90.0844574 C-17.8753666 84.63117779 -17.86906567 79.17834325 -17.84936523 73.72509766 C-17.82700644 67.42918189 -17.8445953 61.13429175 -17.88241452 54.8384729 C-17.91745681 48.77230849 -17.91883183 42.70660977 -17.90653419 36.64036369 C-17.90504678 34.06355625 -17.91274568 31.48672658 -17.92978477 28.90997505 C-17.94974205 25.30674586 -17.93137862 21.70566893 -17.90307617 18.10253906 C-17.9167926 17.03792953 -17.93050903 15.97332001 -17.94464111 14.87644958 C-17.87326271 10.33057697 -17.75115782 6.71305599 -14.79145813 3.09915161 C-10.4198411 -0.46732053 -5.39747436 -0.07089099 0 0 Z " fill="#FAFAFA" transform="translate(83.142578125,65.239501953125)"/>
<path d="M0 0 C15.03812961 -0.0701019 30.07624655 -0.12299395 45.11450481 -0.15543652 C52.09714408 -0.17090102 59.07968178 -0.19198245 66.06225586 -0.22631836 C72.79901847 -0.25942972 79.53565369 -0.27684641 86.27250099 -0.28463173 C88.84455846 -0.29018092 91.41661006 -0.30101692 93.98862267 -0.31719017 C97.58718799 -0.33892153 101.18531531 -0.34196865 104.78393555 -0.34057617 C105.85064484 -0.351362 106.91735413 -0.36214783 108.01638794 -0.3732605 C117.41905603 -0.33380996 117.41905603 -0.33380996 121 3 C122.61944136 6.38880739 123.25299774 9.11705337 123.27415466 12.85754395 C123.28412979 13.80799088 123.29410492 14.75843781 123.30438232 15.73768616 C123.305047 16.76848801 123.30571167 17.79928986 123.30639648 18.86132812 C123.31472 19.95618027 123.32304352 21.05103241 123.33161926 22.17906189 C123.35570625 25.79649412 123.3644887 29.4137461 123.37109375 33.03125 C123.38005906 35.54561416 123.38918089 38.05997777 123.39845276 40.57434082 C123.41494036 45.84335064 123.42267585 51.11231641 123.42553711 56.38134766 C123.42917557 62.46695444 123.4590997 68.55205791 123.50094169 74.63751078 C123.53983104 80.49961448 123.55112985 86.36151842 123.55226326 92.22373962 C123.55647421 94.7148665 123.56894327 97.20599346 123.58978081 99.69703674 C123.61658816 103.17803065 123.61190097 106.65762801 123.59936523 110.13867188 C123.61419952 111.16947372 123.62903381 112.20027557 123.64431763 113.26231384 C123.57223253 120.27947648 123.57223253 120.27947648 120.52503967 124.11633301 C119.69177658 124.73794312 118.85851349 125.35955322 118 126 C117.67 126.33 117.34 126.66 117 127 C115.64905018 127.09268999 114.29332909 127.11747326 112.93920898 127.11352539 C112.07839218 127.11344986 111.21757538 127.11337433 110.33067322 127.11329651 C109.39526199 127.10813522 108.45985077 127.10297394 107.49609375 127.09765625 C106.54307877 127.0962413 105.59006378 127.09482635 104.60816956 127.09336853 C101.55124835 127.08775152 98.49439923 127.07519616 95.4375 127.0625 C93.37044376 127.05748719 91.30338638 127.05292391 89.23632812 127.04882812 C84.15750167 127.03862558 79.07883194 127.01905356 74 127 C74 120.07 74 113.14 74 106 C83.24 106 92.48 106 102 106 C102 77.95 102 49.9 102 21 C73.95 21 45.9 21 17 21 C17 32.22 17 43.44 17 55 C10.33333333 56.33333333 3.66666667 57.66666667 -3 59 C-3.07641436 52.04409873 -3.1287523 45.08830677 -3.16479492 38.13208008 C-3.17982941 35.76843216 -3.20026242 33.40481189 -3.22631836 31.04125977 C-3.26293645 27.63290559 -3.27978031 24.22492208 -3.29296875 20.81640625 C-3.30845261 19.76916885 -3.32393646 18.72193146 -3.33988953 17.64295959 C-3.34011612 16.64260178 -3.34034271 15.64224396 -3.34057617 14.61157227 C-3.34723801 13.74331314 -3.35389984 12.87505402 -3.36076355 11.98048401 C-2.85181221 7.77573185 -1.44294437 3.96744184 0 0 Z " fill="#F9F9FA" transform="translate(321,67)"/>
<path d="M0 0 C1.82917969 0.00580078 1.82917969 0.00580078 3.6953125 0.01171875 C6.875 0.3125 6.875 0.3125 9.875 2.3125 C10.30737305 4.19189453 10.30737305 4.19189453 10.38671875 6.4453125 C10.43989258 7.65380859 10.43989258 7.65380859 10.49414062 8.88671875 C10.51669922 9.72847656 10.53925781 10.57023437 10.5625 11.4375 C10.61374023 12.71173828 10.61374023 12.71173828 10.66601562 14.01171875 C10.74859173 16.11151105 10.81346978 18.21198564 10.875 20.3125 C12.66901245 20.342229 12.66901245 20.342229 14.49926758 20.37255859 C18.93307694 20.44858272 23.36655674 20.53730497 27.80004883 20.62988281 C29.71957904 20.66818577 31.63918135 20.70303633 33.55883789 20.734375 C36.3168313 20.77999702 39.07432777 20.8379958 41.83203125 20.8984375 C42.69149857 20.90998871 43.55096588 20.92153992 44.43647766 20.93344116 C45.23708115 20.95331085 46.03768463 20.97318054 46.86254883 20.99365234 C47.5664827 21.00697601 48.27041656 21.02029968 48.99568176 21.0340271 C50.875 21.3125 50.875 21.3125 53.875 23.3125 C54.17900756 26.0515485 54.29329599 28.51513633 54.25 31.25 C54.26160156 31.97896484 54.27320313 32.70792969 54.28515625 33.45898438 C54.25587662 38.7829978 54.25587662 38.7829978 52.6418457 41.02685547 C50.35357299 42.69191615 49.01812079 42.65918384 46.20703125 42.60546875 C45.31435547 42.59580078 44.42167969 42.58613281 43.50195312 42.57617188 C42.10879883 42.5384668 42.10879883 42.5384668 40.6875 42.5 C39.74712891 42.48646484 38.80675781 42.47292969 37.83789062 42.45898438 C35.51634962 42.42363096 33.19596347 42.37428674 30.875 42.3125 C30.92720703 44.20935547 30.92720703 44.20935547 30.98046875 46.14453125 C31.00860677 47.80467423 31.03590691 49.46483156 31.0625 51.125 C31.08763672 51.95837891 31.11277344 52.79175781 31.13867188 53.65039062 C31.14833984 54.45283203 31.15800781 55.25527344 31.16796875 56.08203125 C31.1836792 56.82042236 31.19938965 57.55881348 31.21557617 58.31958008 C30.875 60.3125 30.875 60.3125 29.85839844 62.04541016 C26.73426157 64.0412583 23.4437913 63.80059744 19.84765625 63.81640625 C19.06233017 63.82639145 18.27700409 63.83637665 17.46788025 63.84666443 C15.80782335 63.86184345 14.14767505 63.86889028 12.48754883 63.8684082 C9.9491486 63.87496989 7.41466081 63.9294421 4.87695312 63.98632812 C3.2630342 63.99513072 1.64909671 64.00108459 0.03515625 64.00390625 C-1.10094337 64.03624107 -1.10094337 64.03624107 -2.25999451 64.06922913 C-6.02553751 64.02033013 -7.80306382 63.60845514 -10.59960938 61.03759766 C-13.21689324 56.13674661 -12.71489702 50.42257624 -12.69140625 45.01953125 C-12.69760483 43.83654953 -12.70380341 42.65356781 -12.71018982 41.43473816 C-12.71727878 38.94095685 -12.71413024 36.44712812 -12.70141602 33.95336914 C-12.68750924 30.127541 -12.72168872 26.30413887 -12.75976562 22.47851562 C-12.76071642 20.0546869 -12.75886015 17.6308551 -12.75390625 15.20703125 C-12.76716446 14.06015335 -12.78042267 12.91327545 -12.79408264 11.73164368 C-12.78154953 10.67011581 -12.76901642 9.60858795 -12.75610352 8.51489258 C-12.75514175 7.58034744 -12.75417999 6.64580231 -12.75318909 5.68293762 C-12.125 3.3125 -12.125 3.3125 -9.80088806 1.51005554 C-6.3866135 -0.01795435 -3.72938026 -0.05146703 0 0 Z " fill="#F8F8F9" transform="translate(223.125,387.6875)"/>
<path d="M0 0 C1.40166664 -0.00956978 1.40166664 -0.00956978 2.83164978 -0.01933289 C3.84828201 -0.02044571 4.86491425 -0.02155853 5.91235352 -0.02270508 C6.94940933 -0.02603348 7.98646515 -0.02936188 9.0549469 -0.03279114 C11.25326085 -0.03786493 13.45158254 -0.04019932 15.64990234 -0.04003906 C19.02332177 -0.04222471 22.39641394 -0.06037347 25.76977539 -0.0793457 C27.90063364 -0.08227962 30.03149345 -0.08426443 32.16235352 -0.08520508 C33.17696152 -0.09239059 34.19156952 -0.09957611 35.23692322 -0.10697937 C36.17451981 -0.10390274 37.11211639 -0.10082611 38.078125 -0.09765625 C38.90561752 -0.09908127 39.73311005 -0.10050629 40.5856781 -0.10197449 C42.60375977 0.14526367 42.60375977 0.14526367 44.60375977 2.14526367 C44.86445618 4.07395935 44.86445618 4.07395935 44.87841797 6.45556641 C44.89271599 7.79221596 44.89271599 7.79221596 44.90730286 9.15586853 C44.90639145 10.12045486 44.90548004 11.0850412 44.90454102 12.07885742 C44.90882614 13.06773453 44.91311127 14.05661163 44.91752625 15.07545471 C44.92327613 17.16943597 44.92376498 19.2634372 44.91943359 21.35742188 C44.91627592 24.56634527 44.93971694 27.77434515 44.96508789 30.9831543 C44.96736099 33.01505417 44.96806433 35.04695653 44.96704102 37.07885742 C44.97625076 38.04141953 44.98546051 39.00398163 44.99494934 39.99571228 C44.98872055 40.88996414 44.98249176 41.784216 44.97607422 42.70556641 C44.97670364 43.49229233 44.97733307 44.27901825 44.97798157 45.08958435 C44.49723199 47.73044325 43.78233675 48.59810335 41.60375977 50.14526367 C39.54808044 50.51948547 39.54808044 50.51948547 37.1640625 50.51757812 C35.82268471 50.52692131 35.82268471 50.52692131 34.45420837 50.53645325 C33.49164627 50.5272435 32.52908417 50.51803375 31.53735352 50.50854492 C30.54751968 50.50904343 29.55768585 50.50954193 28.53785706 50.51005554 C26.44562777 50.50771495 24.35339567 50.49798734 22.26123047 50.48144531 C19.05028249 50.45783003 15.84016325 50.46088735 12.62915039 50.4675293 C10.59854646 50.46195344 8.56794604 50.45484414 6.53735352 50.44604492 C5.57276718 50.44695633 4.60818085 50.44786774 3.61436462 50.44880676 C2.72326492 50.43927475 1.83216522 50.42974274 0.9140625 50.41992188 C0.12813217 50.41531448 -0.65779816 50.41070709 -1.46754456 50.40596008 C-3.39624023 50.14526367 -3.39624023 50.14526367 -5.39624023 48.14526367 C-5.64347839 46.12718201 -5.64347839 46.12718201 -5.63916016 43.61962891 C-5.64223679 42.68203232 -5.64531342 41.74443573 -5.64848328 40.77842712 C-5.64129776 39.76381912 -5.63411224 38.74921112 -5.62670898 37.70385742 C-5.62625076 36.66584488 -5.62579254 35.62783234 -5.62532043 34.55836487 C-5.62229606 32.36181497 -5.61440429 30.16526725 -5.60205078 27.96875 C-5.58379703 24.59326645 -5.58154103 21.21805703 -5.58178711 17.8425293 C-5.57687201 15.71296962 -5.57104373 13.58341181 -5.56420898 11.45385742 C-5.56309616 10.43722519 -5.56198334 9.42059296 -5.56083679 8.37315369 C-5.55445694 7.43870926 -5.54807709 6.50426483 -5.54150391 5.54150391 C-5.53769211 4.71480698 -5.53388031 3.88811005 -5.529953 3.03636169 C-5.27021328 -0.63713394 -3.18293545 0.01467612 0 0 Z " fill="#F7F7F7" transform="translate(110.396240234375,362.854736328125)"/>
<path d="M0 0 C6.65686814 -0.0505916 13.31368694 -0.0856876 19.97070312 -0.10986328 C22.23667249 -0.11993859 24.50262881 -0.13359918 26.76855469 -0.15087891 C30.02021501 -0.17506011 33.27170387 -0.18646763 36.5234375 -0.1953125 C38.05005508 -0.21079636 38.05005508 -0.21079636 39.60751343 -0.22659302 C40.54833771 -0.22674408 41.48916199 -0.22689514 42.45849609 -0.22705078 C43.28900482 -0.231492 44.11951355 -0.23593323 44.97518921 -0.24050903 C47 0 47 0 49 2 C49.26069641 3.92869568 49.26069641 3.92869568 49.2746582 6.31030273 C49.28895622 7.64695229 49.28895622 7.64695229 49.30354309 9.01060486 C49.30263168 9.97519119 49.30172028 10.93977753 49.30078125 11.93359375 C49.30506638 12.92247086 49.3093515 13.91134796 49.31376648 14.93019104 C49.31951637 17.0241723 49.32000521 19.11817353 49.31567383 21.2121582 C49.31251616 24.4210816 49.33595718 27.62908147 49.36132812 30.83789062 C49.36360122 32.8697905 49.36430457 34.90169286 49.36328125 36.93359375 C49.372491 37.89615585 49.38170074 38.85871796 49.39118958 39.85044861 C49.38496078 40.74470047 49.37873199 41.63895233 49.37231445 42.56030273 C49.37294388 43.34702866 49.3735733 44.13375458 49.3742218 44.94432068 C48.89347222 47.58517958 48.17857698 48.45283968 46 50 C43.94432068 50.3742218 43.94432068 50.3742218 41.56030273 50.37231445 C40.21892494 50.38165764 40.21892494 50.38165764 38.85044861 50.39118958 C37.88788651 50.38197983 36.9253244 50.37277008 35.93359375 50.36328125 C34.94375992 50.36377975 33.95392609 50.36427826 32.93409729 50.36479187 C30.841868 50.36245128 28.74963591 50.35272367 26.6574707 50.33618164 C23.44652272 50.31256636 20.23640349 50.31562368 17.02539062 50.32226562 C14.99478669 50.31668977 12.96418627 50.30958047 10.93359375 50.30078125 C9.96900742 50.30169266 9.00442108 50.30260406 8.01060486 50.30354309 C7.11950516 50.29401108 6.22840546 50.28447906 5.31030273 50.2746582 C4.52437241 50.27005081 3.73844208 50.26544342 2.92869568 50.26069641 C1 50 1 50 -1 48 C-1.24723816 46.07130432 -1.24723816 46.07130432 -1.24291992 43.68969727 C-1.24599655 42.79859756 -1.24907318 41.90749786 -1.25224304 40.98939514 C-1.24505753 40.02480881 -1.23787201 39.06022247 -1.23046875 38.06640625 C-1.22978142 36.58309059 -1.22978142 36.58309059 -1.2290802 35.06980896 C-1.22605554 32.97580772 -1.21816291 30.88180878 -1.20581055 28.7878418 C-1.18759471 25.57918335 -1.18530056 22.37081404 -1.18554688 19.16210938 C-1.18063016 17.13020583 -1.17480118 15.09830425 -1.16796875 13.06640625 C-1.16685593 12.10384415 -1.1657431 11.14128204 -1.16459656 10.14955139 C-1.15821671 9.25529953 -1.15183685 8.36104767 -1.14526367 7.43969727 C-1.14145187 6.65297134 -1.13764008 5.86624542 -1.13371277 5.05567932 C-1 3 -1 3 0 0 Z " fill="#F6F6F7" transform="translate(106,105)"/>
<path d="M0 0 C0.87648193 -0.00287018 1.75296387 -0.00574036 2.65600586 -0.00869751 C4.50863288 -0.01073848 6.36128142 -0.00520628 8.21386719 0.00732422 C11.05192179 0.02337766 13.88855227 0.00747695 16.7265625 -0.01171875 C18.52604481 -0.00973632 20.32552624 -0.00589266 22.125 0 C22.97505615 -0.00607269 23.8251123 -0.01214539 24.70092773 -0.0184021 C30.63407946 0.05253644 30.63407946 0.05253644 32.78901672 1.79240417 C34.47025103 3.91266628 34.40947218 5.1654861 34.35546875 7.84765625 C34.3409668 9.11899414 34.3409668 9.11899414 34.32617188 10.41601562 C34.30103516 11.29708984 34.27589844 12.17816406 34.25 13.0859375 C34.22969727 14.42495117 34.22969727 14.42495117 34.20898438 15.79101562 C34.17364079 17.99409916 34.12430493 20.19596332 34.0625 22.3984375 C34.94510498 22.38272705 35.82770996 22.3670166 36.73706055 22.35083008 C40.02650886 22.29955752 43.31552961 22.26201833 46.60522461 22.23364258 C48.02619141 22.2185999 49.44711213 22.19816046 50.86791992 22.17211914 C52.91596886 22.13553403 54.9634015 22.11866653 57.01171875 22.10546875 C58.85769653 22.08190308 58.85769653 22.08190308 60.7409668 22.05786133 C64.34620361 22.42752729 66.1351769 23.3317675 69.0625 25.3984375 C69.825625 25.7903125 70.58875 26.1821875 71.375 26.5859375 C73.0625 28.3984375 73.0625 28.3984375 73.875 32.1484375 C73.71845266 34.97543629 73.28091425 36.14079113 71.43504333 38.31822205 C65.05477345 43.59342874 60.23714178 44.38098033 52.09765625 44.15234375 C50.98313583 44.14718246 49.86861542 44.14202118 48.72032166 44.13670349 C46.38132334 44.11964848 44.04239274 44.08594066 41.70385742 44.03637695 C38.11132372 43.96064922 34.52097982 43.93389978 30.92773438 43.91601562 C28.65101202 43.89343935 26.37431463 43.86814585 24.09765625 43.83984375 C23.02064957 43.82820694 21.94364288 43.81657013 20.83399963 43.80458069 C19.84214157 43.78213791 18.85028351 43.75969513 17.82836914 43.73657227 C16.95394669 43.71990005 16.07952423 43.70322784 15.17860413 43.68605042 C13.0625 43.3984375 13.0625 43.3984375 11.0625 41.3984375 C10.83544922 39.42724609 10.83544922 39.42724609 10.8671875 37.046875 C10.87363281 36.19609375 10.88007813 35.3453125 10.88671875 34.46875 C10.90347656 33.57929688 10.92023438 32.68984375 10.9375 31.7734375 C10.94652344 30.87625 10.95554687 29.9790625 10.96484375 29.0546875 C10.9884503 26.83567164 11.0213769 24.61718673 11.0625 22.3984375 C10.47235107 22.41414795 9.88220215 22.4298584 9.27416992 22.44604492 C6.59954414 22.50841689 3.92507136 22.54743407 1.25 22.5859375 C0.32123047 22.61107422 -0.60753906 22.63621094 -1.56445312 22.66210938 C-2.9034668 22.67661133 -2.9034668 22.67661133 -4.26953125 22.69140625 C-5.09171143 22.7071167 -5.9138916 22.72282715 -6.76098633 22.73901367 C-8.9375 22.3984375 -8.9375 22.3984375 -10.7043457 21.1105957 C-12.79924797 18.20195392 -12.36768041 14.8441475 -12.3125 11.3984375 C-12.32410156 10.67398437 -12.33570313 9.94953125 -12.34765625 9.203125 C-12.31834326 3.90724475 -12.31834326 3.90724475 -10.66040039 1.69223022 C-7.58646098 -0.6161101 -3.69997828 -0.02643217 0 0 Z " fill="#F6F6F6" transform="translate(265.9375,343.6015625)"/>
<path d="M0 0 C1.82917969 0.01933594 1.82917969 0.01933594 3.6953125 0.0390625 C6.875 0.375 6.875 0.375 9.875 2.375 C10.21557617 4.34619141 10.21557617 4.34619141 10.16796875 6.7265625 C10.15830078 7.57734375 10.14863281 8.428125 10.13867188 9.3046875 C10.11353516 10.19414063 10.08839844 11.08359375 10.0625 12 C10.04219727 13.34578125 10.04219727 13.34578125 10.02148438 14.71875 C9.98606925 16.93809789 9.93668461 19.15625188 9.875 21.375 C10.44009277 21.36976318 11.00518555 21.36452637 11.58740234 21.35913086 C14.1415903 21.33837578 16.69576053 21.3253446 19.25 21.3125 C20.58417969 21.29993164 20.58417969 21.29993164 21.9453125 21.28710938 C22.79609375 21.28388672 23.646875 21.28066406 24.5234375 21.27734375 C25.30895996 21.27210693 26.09448242 21.26687012 26.90380859 21.26147461 C28.875 21.375 28.875 21.375 30.875 22.375 C30.92879226 25.33357409 30.96857093 28.29117721 31 31.25 C31.01675781 32.09175781 31.03351563 32.93351562 31.05078125 33.80078125 C31.06044922 35.00927734 31.06044922 35.00927734 31.0703125 36.2421875 C31.08602295 37.35762939 31.08602295 37.35762939 31.10205078 38.49560547 C30.875 40.375 30.875 40.375 28.875 42.375 C26.90380859 42.60205078 26.90380859 42.60205078 24.5234375 42.5703125 C23.67265625 42.56386719 22.821875 42.55742188 21.9453125 42.55078125 C21.05585938 42.53402344 20.16640625 42.51726562 19.25 42.5 C17.90421875 42.48646484 17.90421875 42.48646484 16.53125 42.47265625 C14.31223414 42.4490497 12.09374923 42.4161231 9.875 42.375 C9.89594727 43.38401367 9.91689453 44.39302734 9.93847656 45.43261719 C10.01096785 49.18214687 10.0568322 52.93161482 10.09472656 56.68164062 C10.11482144 58.30349143 10.14210254 59.92526997 10.17675781 61.546875 C10.2253727 63.8803898 10.24798889 66.21294557 10.265625 68.546875 C10.28627014 69.26993835 10.30691528 69.99300171 10.32818604 70.73797607 C10.32970854 74.16675062 10.12369624 76.03920662 8.05761719 78.82885742 C4.96496417 81.01965961 2.6310441 80.94147886 -1.125 80.9375 C-2.341875 80.95941406 -3.55875 80.98132813 -4.8125 81.00390625 C-8.125 80.375 -8.125 80.375 -10.2986908 78.27455139 C-12.54881763 74.70212325 -12.63740224 72.55692542 -12.65844727 68.35327148 C-12.66706284 67.66646301 -12.67567841 66.97965454 -12.68455505 66.27203369 C-12.70716733 64.01299837 -12.70048729 61.75520806 -12.69140625 59.49609375 C-12.69664308 57.92098117 -12.70291978 56.34587172 -12.71018982 54.77076721 C-12.72058447 51.47471321 -12.716045 48.17909122 -12.70141602 44.88305664 C-12.68420718 40.6602733 -12.7077525 36.43884797 -12.74290562 32.21621609 C-12.76486698 28.96563207 -12.76344174 25.71537386 -12.7551403 22.46473885 C-12.7543205 20.9078122 -12.76118961 19.3508617 -12.77591133 17.79400444 C-12.79334115 15.61759751 -12.77883471 13.44364235 -12.75610352 11.26733398 C-12.75514175 10.02999008 -12.75417999 8.79264618 -12.75318909 7.51780701 C-12.125 4.375 -12.125 4.375 -9.80088806 1.97303772 C-6.3483356 -0.08882322 -3.99688645 -0.09334554 0 0 Z " fill="#F7F6F7" transform="translate(223.125,66.625)"/>
<path d="M0 0 C3.43734063 -0.08703823 6.87439837 -0.14040272 10.3125 -0.1875 C11.28896484 -0.21263672 12.26542969 -0.23777344 13.27148438 -0.26367188 C14.20927734 -0.27333984 15.14707031 -0.28300781 16.11328125 -0.29296875 C16.97735596 -0.3086792 17.84143066 -0.32438965 18.73168945 -0.34057617 C21 0 21 0 22.78710938 1.24023438 C24.32474837 3.47117275 24.34720758 4.75535665 24.29296875 7.44921875 C24.28330078 8.29677734 24.27363281 9.14433594 24.26367188 10.01757812 C24.23853516 10.89865234 24.21339844 11.77972656 24.1875 12.6875 C24.16719727 14.02651367 24.16719727 14.02651367 24.14648438 15.39257812 C24.11114079 17.59566166 24.06180493 19.79752582 24 22 C25.24136719 21.95359375 26.48273438 21.9071875 27.76171875 21.859375 C29.40362171 21.82184579 31.04555077 21.78544686 32.6875 21.75 C33.50412109 21.71648437 34.32074219 21.68296875 35.16210938 21.6484375 C35.95810547 21.63554687 36.75410156 21.62265625 37.57421875 21.609375 C38.66609497 21.5779541 38.66609497 21.5779541 39.7800293 21.54589844 C43.11285004 22.22763676 44.68425243 23.53058554 47 26 C47.63110352 29.22045898 47.63110352 29.22045898 47.62890625 32.99609375 C47.63131821 33.66665298 47.63373016 34.33721222 47.63621521 35.02809143 C47.63523821 36.44269742 47.62187885 37.85734232 47.59692383 39.27172852 C47.56265213 41.42792847 47.57625472 43.58001715 47.59570312 45.73632812 C47.5888026 47.11460066 47.57912832 48.49286266 47.56640625 49.87109375 C47.55552979 51.11818115 47.54465332 52.36526855 47.53344727 53.65014648 C46.90435539 57.60061316 45.82931554 59.21559918 43 62 C40.14072906 63.71160784 38.03927395 64.25157071 34.72216797 64.25878906 C33.88805389 64.26509338 33.05393982 64.27139771 32.19454956 64.27789307 C31.30277008 64.2738446 30.4109906 64.26979614 29.4921875 64.265625 C28.57035675 64.26753845 27.648526 64.2694519 26.69876099 64.27142334 C24.75376105 64.27278249 22.80875196 64.26910494 20.86376953 64.26074219 C17.87902611 64.25001447 14.89488126 64.26065916 11.91015625 64.2734375 C10.020832 64.27211634 8.13150812 64.26955484 6.2421875 64.265625 C5.34635956 64.26967346 4.45053162 64.27372192 3.52755737 64.27789307 C2.28584274 64.26843658 2.28584274 64.26843658 1.01904297 64.25878906 C0.28942352 64.25719788 -0.44019592 64.25560669 -1.19192505 64.25396729 C-3 64 -3 64 -5 62 C-5.19852102 59.29077199 -5.27839477 56.70696821 -5.25 54 C-5.25773437 53.26265625 -5.26546875 52.5253125 -5.2734375 51.765625 C-5.2533196 46.2533196 -5.2533196 46.2533196 -3 44 C-0.47802734 43.68115234 -0.47802734 43.68115234 2.6640625 43.5859375 C3.78554688 43.54726563 4.90703125 43.50859375 6.0625 43.46875 C7.238125 43.4378125 8.41375 43.406875 9.625 43.375 C10.80835938 43.33632813 11.99171875 43.29765625 13.2109375 43.2578125 C16.14036139 43.16331496 19.0701597 43.08056001 22 43 C22.33 36.4 22.66 29.8 23 23 C20.68742187 23.06960938 20.68742187 23.06960938 18.328125 23.140625 C16.3021027 23.17814393 14.27605945 23.21454396 12.25 23.25 C11.23421875 23.28351563 10.2184375 23.31703125 9.171875 23.3515625 C1.80358697 23.44851366 1.80358697 23.44851366 -1.6875 21.5 C-3.55409618 17.94457871 -3.42938319 14.65503406 -3.25 10.75 C-3.23195313 10.00492188 -3.21390625 9.25984375 -3.1953125 8.4921875 C-3.14835649 6.66090299 -3.07661652 4.83028351 -3 3 C-2.34 3 -1.68 3 -1 3 C-0.67 2.01 -0.34 1.02 0 0 Z " fill="#F9F9F9" transform="translate(398,236)"/>
<path d="M0 0 C1.37152222 -0.00945648 1.37152222 -0.00945648 2.77075195 -0.019104 C3.76034912 -0.01505554 4.74994629 -0.01100708 5.76953125 -0.00683594 C6.78297607 -0.00874939 7.7964209 -0.01066284 8.84057617 -0.01263428 C10.98584237 -0.01399685 13.13111678 -0.01029541 15.27636719 -0.00195312 C18.56854697 0.00874524 21.86018103 -0.00184613 25.15234375 -0.01464844 C27.23307413 -0.01332686 29.31380416 -0.01076449 31.39453125 -0.00683594 C32.38412842 -0.0108844 33.37372559 -0.01493286 34.39331055 -0.019104 C35.30765869 -0.01279968 36.22200684 -0.00649536 37.1640625 0 C38.37412964 0.00238678 38.37412964 0.00238678 39.60864258 0.00482178 C41.58203125 0.25878906 41.58203125 0.25878906 43.58203125 2.25878906 C43.83599854 4.23217773 43.83599854 4.23217773 43.84082031 6.67675781 C43.84712463 7.59110596 43.85342896 8.5054541 43.85992432 9.44750977 C43.85587585 10.43710693 43.85182739 11.4267041 43.84765625 12.44628906 C43.85052643 13.9664563 43.85052643 13.9664563 43.85345459 15.51733398 C43.85481716 17.66260018 43.85111572 19.80787459 43.84277344 21.953125 C43.83207507 25.24530478 43.84266644 28.53693884 43.85546875 31.82910156 C43.85414717 33.90983194 43.8515848 35.99056197 43.84765625 38.07128906 C43.85170471 39.06088623 43.85575317 40.0504834 43.85992432 41.07006836 C43.85362 41.9844165 43.84731567 42.89876465 43.84082031 43.84082031 C43.83922913 44.64753174 43.83763794 45.45424316 43.83599854 46.28540039 C43.58203125 48.25878906 43.58203125 48.25878906 41.58203125 50.25878906 C38.83717532 50.40386601 36.19722582 50.44531329 33.45703125 50.38378906 C32.70292969 50.37476563 31.94882812 50.36574219 31.171875 50.35644531 C29.30845871 50.33285776 27.44520532 50.29698625 25.58203125 50.25878906 C23.82237994 46.25357736 22.23978365 42.59995493 21.58203125 38.25878906 C20.92203125 38.25878906 20.26203125 38.25878906 19.58203125 38.25878906 C19.21078125 37.57816406 18.83953125 36.89753906 18.45703125 36.19628906 C12.68443023 27.15254746 2.86222703 22.91097054 -6.41796875 18.25878906 C-6.47178981 15.63351718 -6.51155188 13.00934194 -6.54296875 10.38378906 C-6.55972656 9.63742188 -6.57648438 8.89105469 -6.59375 8.12207031 C-6.61136465 6.16684445 -6.52117064 4.21136885 -6.41796875 2.25878906 C-3.97668206 -0.18249762 -3.34716061 0.00660206 0 0 Z " fill="#F3F3F4" transform="translate(362.41796875,104.7412109375)"/>
<path d="M0 0 C4.78049299 2.72837893 8.01419969 5.90339937 10.5 10.875 C11.11185712 19.64160864 11.64268324 27.38137584 6.5 34.875 C4.98828125 36.57421875 4.98828125 36.57421875 3.5 37.875 C2.84 37.875 2.18 37.875 1.5 37.875 C1.17 38.865 0.84 39.855 0.5 40.875 C-2.71006265 42.48003133 -6.16431131 42.14282728 -9.6875 42.1875 C-10.43064453 42.21650391 -11.17378906 42.24550781 -11.93945312 42.27539062 C-17.62862121 42.34021024 -20.84011316 41.16975312 -25.5 37.875 C-27.4609375 35.83984375 -27.4609375 35.83984375 -28.875 33.8125 C-29.59816406 32.80509766 -29.59816406 32.80509766 -30.3359375 31.77734375 C-33.90795166 25.93985752 -33.2131218 18.44783022 -32.5 11.875 C-30.24895676 6.36825328 -26.49382932 2.11424064 -21.5 -1.125 C-14.51216888 -3.45427704 -6.66534364 -3.12719882 0 0 Z " fill="#FAEFEE" transform="translate(458.5,422.125)"/>
<path d="M0 0 C2.19521106 -0.01724306 4.38892707 -0.06113623 6.58374023 -0.10522461 C7.97760937 -0.11534928 9.3714913 -0.12386609 10.76538086 -0.13061523 C12.03567139 -0.14519775 13.30596191 -0.15978027 14.61474609 -0.17480469 C17.76928711 0.29516602 17.76928711 0.29516602 19.66796875 2.08740234 C21.4047306 5.56901117 21.65367016 8.57673727 20.76928711 12.29516602 C19.0595882 15.88181699 17.13991722 18.17330938 13.76928711 20.29516602 C9.07697141 21.2418164 4.54628444 21.40117428 -0.23071289 21.29516602 C-0.26938477 23.17461914 -0.26938477 23.17461914 -0.30883789 25.09204102 C-0.36512458 26.74311725 -0.4224718 28.39415757 -0.48071289 30.04516602 C-0.49489258 30.87016602 -0.50907227 31.69516602 -0.52368164 32.54516602 C-0.5559082 33.34438477 -0.58813477 34.14360352 -0.62133789 34.96704102 C-0.64228516 35.70019531 -0.66323242 36.43334961 -0.68481445 37.1887207 C-1.47392398 40.23363888 -2.72862194 41.41983312 -5.23071289 43.29516602 C-8.11572266 43.796875 -8.11572266 43.796875 -11.42211914 43.79125977 C-12.61385742 43.7919043 -13.8055957 43.79254883 -15.03344727 43.79321289 C-16.89453125 43.76324219 -16.89453125 43.76324219 -18.79321289 43.73266602 C-20.66009766 43.74330078 -20.66009766 43.74330078 -22.56469727 43.75415039 C-31.67232667 43.69004688 -31.67232667 43.69004688 -34.08666992 41.98266602 C-35.98253937 39.18619789 -35.62120827 36.11163333 -35.54321289 32.85766602 C-35.5393457 31.53895508 -35.53547852 30.22024414 -35.53149414 28.86157227 C-35.23071289 25.29516602 -35.23071289 25.29516602 -33.23071289 21.29516602 C-27.62071289 21.29516602 -22.01071289 21.29516602 -16.23071289 21.29516602 C-16.27011053 16.20966186 -16.27011053 16.20966186 -16.32080078 11.12426758 C-16.33420602 7.69079752 -16.34054032 4.55766464 -15.23071289 1.29516602 C-10.82378738 -0.90829674 -4.89750562 0.02685216 0 0 Z " fill="#F8F8F8" transform="translate(278.230712890625,127.704833984375)"/>
<path d="M0 0 C0.78532608 -0.0004985 1.57065216 -0.00099701 2.379776 -0.00151062 C4.03991222 0.00082869 5.70005206 0.01054887 7.36010742 0.02709961 C9.89729662 0.05066183 12.43343253 0.0476635 14.97070312 0.04101562 C16.58464167 0.04659367 18.19857579 0.05370435 19.8125 0.0625 C20.56989975 0.06158859 21.3272995 0.06067719 22.10765076 0.05973816 C29.18771884 0.15468881 29.18771884 0.15468881 31.97265625 2.36328125 C33.58751392 5.96034996 33.15262909 10.19815734 33.17578125 14.0859375 C33.18148132 14.82782822 33.1871814 15.56971893 33.1930542 16.33409119 C33.20247678 17.89825016 33.20902725 19.46242874 33.21289062 21.02661133 C33.22263713 23.42108367 33.25370117 25.81471178 33.28515625 28.20898438 C33.29168298 29.73046367 33.29693475 31.25194907 33.30078125 32.7734375 C33.31312805 33.48911392 33.32547485 34.20479034 33.3381958 34.94215393 C33.32522966 37.82635936 33.3001604 39.86752379 31.68481445 42.31274414 C28.68599221 44.15274587 25.3183307 43.79252275 21.91015625 43.73828125 C21.17732422 43.74988281 20.44449219 43.76148438 19.68945312 43.7734375 C17.5625 43.76171875 17.5625 43.76171875 13.97265625 43.36328125 C11.95856065 40.34213785 11.70429029 39.55668108 11.55859375 36.1328125 C11.51992188 35.33037109 11.48125 34.52792969 11.44140625 33.70117188 C11.41046875 32.86779297 11.37953125 32.03441406 11.34765625 31.17578125 C11.30898438 30.33080078 11.2703125 29.48582031 11.23046875 28.61523438 C11.13629346 26.53160601 11.0533895 24.44747372 10.97265625 22.36328125 C10.34174072 22.3382251 9.7108252 22.31316895 9.06079102 22.28735352 C6.218688 22.17173988 3.37694542 22.04885809 0.53515625 21.92578125 C-0.45806641 21.88646484 -1.45128906 21.84714844 -2.47460938 21.80664062 C-3.41884766 21.76474609 -4.36308594 21.72285156 -5.3359375 21.6796875 C-6.21048584 21.64302979 -7.08503418 21.60637207 -7.98608398 21.56860352 C-10.02734375 21.36328125 -10.02734375 21.36328125 -11.02734375 20.36328125 C-11.18088713 17.55816172 -11.25900151 14.79464454 -11.27734375 11.98828125 C-11.29796875 11.20710938 -11.31859375 10.4259375 -11.33984375 9.62109375 C-11.37862964 3.95835432 -11.37862964 3.95835432 -10.00854492 1.63745117 C-6.88180927 -0.37344635 -3.59825041 -0.04363699 0 0 Z " fill="#F7F7F8" transform="translate(266.02734375,65.63671875)"/>
<path d="M0 0 C6.06375 -0.0309375 6.06375 -0.0309375 12.25 -0.0625 C13.51875977 -0.071604 14.78751953 -0.08070801 16.09472656 -0.09008789 C17.09987305 -0.09258545 18.10501953 -0.09508301 19.140625 -0.09765625 C20.68024902 -0.10551147 20.68024902 -0.10551147 22.25097656 -0.11352539 C26.5379941 0.06351397 29.21120398 0.64981416 32.25 3.75 C35.82495848 8.14573977 35.83618243 12.53507601 35.609375 18.03515625 C34.96219954 21.18391378 34.5024019 22.14994998 32 24.0625 C31.01 24.701875 30.02 25.34125 29 26 C28.53665194 29.95531288 28.53665194 29.95531288 30.8125 31.875 C31.8953125 32.926875 31.8953125 32.926875 33 34 C36 39.25 36 39.25 36 43 C31.71 43 27.42 43 23 43 C22.566875 41.989375 22.13375 40.97875 21.6875 39.9375 C21.41035156 39.30457031 21.13320313 38.67164063 20.84765625 38.01953125 C20.29380889 36.6999963 19.77862195 35.36338175 19.30859375 34.01171875 C18.57932748 31.86980449 18.57932748 31.86980449 17 29 C15.35 28.67 13.7 28.34 12 28 C12 32.95 12 37.9 12 43 C8.04 43 4.08 43 0 43 C0 28.81 0 14.62 0 0 Z " fill="#FBF1F1" transform="translate(386,421)"/>
<path d="M0 0 C5.754375 -0.061875 5.754375 -0.061875 11.625 -0.125 C12.82334473 -0.14320801 14.02168945 -0.16141602 15.25634766 -0.18017578 C25.49593877 -0.23348012 25.49593877 -0.23348012 30 2 C34.1364934 7.25446459 35.55612835 11.32645977 35 18 C32.84692338 23.29298003 30.61707737 26.02502234 25.37109375 28.35546875 C20.90457244 29.56959728 16.59736515 29.22986826 12 29 C12 33.62 12 38.24 12 43 C8.04 43 4.08 43 0 43 C0 28.81 0 14.62 0 0 Z " fill="#FBF2F2" transform="translate(346,421)"/>
<path d="M0 0 C0.66022156 0.00565979 1.32044312 0.01131958 2.00067139 0.01715088 C4.10015763 0.0394627 6.1979087 0.08964186 8.296875 0.140625 C9.7239336 0.16069706 11.15101908 0.17894661 12.578125 0.1953125 C16.06826793 0.23930807 19.55740199 0.30829624 23.046875 0.390625 C22.716875 1.710625 22.386875 3.030625 22.046875 4.390625 C21.386875 4.390625 20.726875 4.390625 20.046875 4.390625 C19.78777344 5.09445313 19.52867188 5.79828125 19.26171875 6.5234375 C17.50243543 10.67557241 15.12988663 14.40447618 12.80078125 18.2578125 C11.29729943 20.94331899 10.09066622 23.61564746 8.9152832 26.45410156 C7.1555849 30.37817436 4.97284847 34.08658353 2.859375 37.828125 C2.39595703 38.65505859 1.93253906 39.48199219 1.45507812 40.33398438 C0.32211236 42.35463465 -0.81400492 44.37343985 -1.953125 46.390625 C-7.38634248 45.90767234 -7.38634248 45.90767234 -9.62524414 43.86523438 C-11.51917588 40.33574512 -11.40150578 36.95633173 -11.38671875 33.046875 C-11.3919606 32.24076782 -11.39720245 31.43466064 -11.40260315 30.60412598 C-11.40901528 28.90292511 -11.40769679 27.20167986 -11.39916992 25.50048828 C-11.39065328 22.89926226 -11.41944025 20.30022826 -11.45117188 17.69921875 C-11.45278389 16.04427149 -11.45220635 14.38932035 -11.44921875 12.734375 C-11.46045273 11.95823853 -11.47168671 11.18210205 -11.48326111 10.38244629 C-11.43965356 7.00039154 -11.19541794 4.76960836 -9.35668945 1.89355469 C-6.09321161 -0.14707199 -3.83457087 -0.06499273 0 0 Z " fill="#FBFBFB" transform="translate(76.953125,211.609375)"/>
<path d="M0 0 C3.43734063 -0.08703823 6.87439837 -0.14040272 10.3125 -0.1875 C11.28896484 -0.21263672 12.26542969 -0.23777344 13.27148438 -0.26367188 C14.20927734 -0.27333984 15.14707031 -0.28300781 16.11328125 -0.29296875 C16.97735596 -0.3086792 17.84143066 -0.32438965 18.73168945 -0.34057617 C21 0 21 0 22.78710938 1.24023438 C24.32474837 3.47117275 24.34720758 4.75535665 24.29296875 7.44921875 C24.28330078 8.29677734 24.27363281 9.14433594 24.26367188 10.01757812 C24.23853516 10.89865234 24.21339844 11.77972656 24.1875 12.6875 C24.16719727 14.02651367 24.16719727 14.02651367 24.14648438 15.39257812 C24.11114643 17.59530983 24.05733969 19.7977312 24 22 C29.94 22 35.88 22 42 22 C42 22.33 42 22.66 42 23 C36.06 23 30.12 23 24 23 C24 29.27 24 35.54 24 42 C23.67 42 23.34 42 23 42 C23 35.73 23 29.46 23 23 C20.68742187 23.06960938 20.68742187 23.06960938 18.328125 23.140625 C16.3021027 23.17814393 14.27605945 23.21454396 12.25 23.25 C11.23421875 23.28351563 10.2184375 23.31703125 9.171875 23.3515625 C1.80358697 23.44851366 1.80358697 23.44851366 -1.6875 21.5 C-3.55409618 17.94457871 -3.42938319 14.65503406 -3.25 10.75 C-3.23195313 10.00492188 -3.21390625 9.25984375 -3.1953125 8.4921875 C-3.14835649 6.66090299 -3.07661652 4.83028351 -3 3 C-2.34 3 -1.68 3 -1 3 C-0.67 2.01 -0.34 1.02 0 0 Z " fill="#F6F5F6" transform="translate(398,236)"/>
<path d="M0 0 C0.70769531 -0.01998047 1.41539062 -0.03996094 2.14453125 -0.06054688 C5.57384201 -0.05735385 8.01710661 0.38468604 11.1015625 1.89453125 C14.09564398 5.65736338 13.7873306 8.89180597 13.625 13.5625 C13.62886719 14.79806641 13.62886719 14.79806641 13.6328125 16.05859375 C13.559138 20.56010554 13.559138 20.56010554 13.125 22.4375 C8.9416116 25.2264256 5.47706709 24.76816174 0.5625 24.75 C-0.31341797 24.76611328 -1.18933594 24.78222656 -2.09179688 24.79882812 C-3.34766602 24.79979492 -3.34766602 24.79979492 -4.62890625 24.80078125 C-5.39533447 24.80376221 -6.1617627 24.80674316 -6.95141602 24.80981445 C-7.58619873 24.68695068 -8.22098145 24.56408691 -8.875 24.4375 C-11.58882083 20.36676875 -11.20627641 17.21421888 -11.1875 12.4375 C-11.20361328 11.61765625 -11.21972656 10.7978125 -11.23632812 9.953125 C-11.23697266 9.16421875 -11.23761719 8.3753125 -11.23828125 7.5625 C-11.24126221 6.84320313 -11.24424316 6.12390625 -11.24731445 5.3828125 C-10.11786603 -0.51846293 -4.96145597 -0.04916758 0 0 Z " fill="#EFEEEF" transform="translate(431.875,211.5625)"/>
<path d="M0 0 C0.72445312 -0.00322266 1.44890625 -0.00644531 2.1953125 -0.00976562 C5.9807029 0.02864701 7.78295894 0.16780596 11 2.3125 C11.38818359 4.14428711 11.38818359 4.14428711 11.3984375 6.33984375 C11.40423828 7.52803711 11.40423828 7.52803711 11.41015625 8.74023438 C11.39855469 9.56845703 11.38695312 10.39667969 11.375 11.25 C11.38660156 12.07435547 11.39820313 12.89871094 11.41015625 13.74804688 C11.40628906 14.54146484 11.40242188 15.33488281 11.3984375 16.15234375 C11.39505371 16.87800537 11.39166992 17.60366699 11.38818359 18.35131836 C10.88448904 20.89608462 10.06916985 21.77794961 8 23.3125 C5.23881175 23.61084873 2.75451984 23.73161153 0 23.6875 C-1.08667969 23.70490234 -1.08667969 23.70490234 -2.1953125 23.72265625 C-7.49285038 23.69333408 -7.49285038 23.69333408 -9.70556641 22.03173828 C-11.9594912 19.03812486 -11.42903114 15.40857285 -11.375 11.8125 C-11.38660156 11.04035156 -11.39820313 10.26820313 -11.41015625 9.47265625 C-11.38076045 3.818864 -11.38076045 3.818864 -9.70556641 1.59106445 C-6.82302752 -0.56980817 -3.45374318 -0.07681813 0 0 Z " fill="#F2F2F2" transform="translate(222,344.6875)"/>
<path d="M0 0 C0.71607422 -0.01160156 1.43214844 -0.02320313 2.16992188 -0.03515625 C5.18919252 -0.01836698 7.72672151 0.24100638 10.5390625 1.36328125 C12.98283495 4.5903141 12.59967607 8.06299472 12.5 11.9375 C12.50708984 12.71802734 12.51417969 13.49855469 12.52148438 14.30273438 C12.49609375 16.56640625 12.49609375 16.56640625 12.0625 20.375 C8.21931569 22.93712287 5.01556045 22.70608539 0.5625 22.6875 C-0.59572266 22.71166992 -0.59572266 22.71166992 -1.77734375 22.73632812 C-7.45023567 22.74124398 -7.45023567 22.74124398 -9.65673828 21.08276367 C-11.82084447 18.19715124 -11.36790735 14.83488104 -11.3125 11.375 C-11.32410156 10.65054687 -11.33570313 9.92609375 -11.34765625 9.1796875 C-11.33185881 6.32561639 -11.24083908 3.95861055 -9.91015625 1.3984375 C-6.73268982 -0.25006984 -3.49123386 -0.05625981 0 0 Z " fill="#EEEDEE" transform="translate(287.9375,302.625)"/>
<path d="M0 0 C3.93363937 0.17297763 6.50393382 0.90163373 9.625 3.4375 C11.02932107 6.24614214 10.90852778 8.6813355 11 11.8125 C11.04898437 12.95460938 11.09796875 14.09671875 11.1484375 15.2734375 C10.625 18.4375 10.625 18.4375 8.390625 20.82421875 C5.58427955 22.46125359 4.19641883 22.95738193 1 22.875 C-0.13308594 22.87306641 -0.13308594 22.87306641 -1.2890625 22.87109375 C-3.88507628 22.33147291 -4.76332654 21.51314006 -6.375 19.4375 C-7.43385037 16.2609489 -7.57549266 13.83761989 -7.625 10.5 C-7.66367187 8.93958984 -7.66367187 8.93958984 -7.703125 7.34765625 C-7.12821845 2.24878271 -5.2118849 -0.13341002 0 0 Z " fill="#C32B10" transform="translate(446.375,430.5625)"/>
<path d="M0 0 C1.12253677 -0.00087616 2.24507355 -0.00175232 3.40162659 -0.00265503 C7.10326286 0.00151724 10.80307574 0.04815726 14.50439453 0.09521484 C17.07413747 0.10640814 19.64389323 0.11494769 22.21365356 0.12094116 C28.28055295 0.14149059 34.34670247 0.18875169 40.41331971 0.2490381 C47.32254578 0.31620119 54.23180369 0.34911661 61.14127517 0.37921071 C75.34860197 0.44185495 89.55538132 0.54732841 103.76220703 0.68115234 C103.76220703 1.01115234 103.76220703 1.34115234 103.76220703 1.68115234 C103.17836872 1.68169711 102.59453041 1.68224188 101.99300003 1.68280315 C87.78790414 1.69776946 73.58311267 1.74020984 59.3781929 1.81324291 C52.50876565 1.84789855 45.63953917 1.87324914 38.77001953 1.87670898 C32.14330944 1.88007264 25.51704338 1.90934755 18.89046478 1.95458412 C16.35949391 1.96759617 13.8284627 1.97185379 11.29746246 1.96730614 C7.75813434 1.96242681 4.22029745 1.98837693 0.68115234 2.02172852 C-0.37045074 2.01310287 -1.42205383 2.00447723 -2.50552368 1.99559021 C-8.28103343 1.94662567 -8.28103343 1.94662567 -12.79522705 5.22236633 C-13.50929718 6.43946541 -13.50929718 6.43946541 -14.23779297 7.68115234 C-14.89779297 7.68115234 -15.55779297 7.68115234 -16.23779297 7.68115234 C-15.90779297 46.29115234 -15.57779297 84.90115234 -15.23779297 124.68115234 C-15.89779297 124.35115234 -16.55779297 124.02115234 -17.23779297 123.68115234 C-17.37804967 108.53002888 -17.48380622 93.37893539 -17.548666 78.22730827 C-17.57958428 71.19184523 -17.62172478 64.15678591 -17.69042969 57.12158203 C-17.75669521 50.33291929 -17.79149375 43.54467638 -17.80705643 36.7557106 C-17.81814779 34.16489177 -17.83980665 31.57409605 -17.87217331 28.98345566 C-17.91569387 25.35597775 -17.92172843 21.73023578 -17.91894531 18.10253906 C-17.94051697 17.03007431 -17.96208862 15.95760956 -17.98431396 14.85264587 C-17.94639982 10.28940758 -17.86506003 6.64533794 -14.89758301 3.0098877 C-10.49662437 -0.56971539 -5.41940376 -0.11094096 0 0 Z " fill="#A5A4A9" transform="translate(83.23779296875,65.31884765625)"/>
<path d="M0 0 C-2.62772992 2.62772992 -4.5940408 2.74923613 -8.2265625 3.515625 C-8.86998093 3.65198868 -9.51339935 3.78835236 -10.17631531 3.92884827 C-12.32395895 4.37912189 -14.474093 4.81559807 -16.625 5.25 C-17.36487152 5.40173676 -18.10474304 5.55347351 -18.86703491 5.70980835 C-35.64622732 9.13535387 -52.55138056 11.66724465 -69.5030365 14.06785583 C-74.05646211 14.71319534 -78.59930211 15.40600431 -83.140625 16.1328125 C-87.92355824 16.87663965 -92.60323268 17.33368775 -97.4375 17.5625 C-102.71330045 17.81446932 -102.71330045 17.81446932 -107.93359375 18.546875 C-111.89687656 19.13253208 -115.63871599 18.94010307 -119.625 18.6875 C-120.37523437 18.65205078 -121.12546875 18.61660156 -121.8984375 18.58007812 C-125.77618408 18.34975098 -128.61555003 17.87287953 -132 16 C-131.30664551 16.01047363 -130.61329102 16.02094727 -129.89892578 16.03173828 C-115.77269408 16.21622701 -101.98320427 16.0799169 -88 14 C-87.20432617 13.88221191 -86.40865234 13.76442383 -85.58886719 13.64306641 C-82.21409334 13.13941795 -78.8403136 12.62997715 -75.46826172 12.10839844 C-68.45211592 11.03234424 -61.42470554 10.22029478 -54.3671875 9.47265625 C-47.56596457 8.75019888 -40.7837929 7.86876912 -34 7 C-34 6.34 -34 5.68 -34 5 C-32.72125 4.80664062 -31.4425 4.61328125 -30.125 4.4140625 C-28.41663655 4.15123735 -26.70830489 3.88820549 -25 3.625 C-24.16082031 3.49867188 -23.32164062 3.37234375 -22.45703125 3.2421875 C-18.45829678 2.62222867 -14.54172862 1.92994044 -10.625 0.90625 C-6.82188866 -0.04452784 -3.88361234 -0.16181718 0 0 Z " fill="#6B140C" transform="translate(512,304)"/>
<path d="M0 0 C32.01 0 64.02 0 97 0 C97 36 97 36 92 53 C91.01 53.99 91.01 53.99 90 55 C90.44742287 51.59270273 90.94072859 48.25512478 91.71875 44.90625 C95.14374022 29.97329262 94.48020411 17.1136725 95 1 C63.65 1 32.3 1 0 1 C0 0.67 0 0.34 0 0 Z " fill="#B1140A" transform="translate(415,390)"/>
<path d="M0 0 C0.55945313 0.18175781 1.11890625 0.36351562 1.6953125 0.55078125 C4.45126793 1.41478657 7.22103654 2.21309963 10 3 C10.969375 3.28617187 11.93875 3.57234375 12.9375 3.8671875 C33.70187856 9.21096139 56.06925974 5.4950344 77 3 C78.87229205 2.78425368 80.74467846 2.56932361 82.6171875 2.35546875 C86.41341712 1.91882478 90.20733228 1.46653655 94 1 C91.64355388 3.35644612 90.56816591 3.46168836 87.34375 4.03515625 C86.40273438 4.20466797 85.46171875 4.37417969 84.4921875 4.54882812 C83.50476563 4.71833984 82.51734375 4.88785156 81.5 5.0625 C80.54351562 5.23587891 79.58703125 5.40925781 78.6015625 5.58789062 C69.15735907 7.25790221 59.84773797 8.15398829 50.2578125 8.203125 C48.92337601 8.21167511 48.92337601 8.21167511 47.5619812 8.22039795 C45.69481569 8.22976989 43.82763421 8.23635047 41.96044922 8.24023438 C39.13869889 8.24995282 36.31767439 8.2810563 33.49609375 8.3125 C8.94813829 8.4567819 8.94813829 8.4567819 0 1 C0 0.67 0 0.34 0 0 Z " fill="#76160B" transform="translate(357,357)"/>
<path d="M0 0 C7.72230869 -0.27685614 15.4909249 0.28866138 21.61328125 5.390625 C22.29390625 6.2878125 22.29390625 6.2878125 22.98828125 7.203125 C19.98828125 7.203125 19.98828125 7.203125 17.2578125 5.75 C9.85994851 2.24993532 -2.05276691 2.03804615 -10.01171875 4.203125 C-19.17056386 7.77025415 -26.11910125 14.83246642 -31.01171875 23.203125 C-32.21642671 24.82574021 -33.44542092 26.43063529 -34.69921875 28.015625 C-35.32183594 28.80582031 -35.94445312 29.59601563 -36.5859375 30.41015625 C-37.05644531 31.00183594 -37.52695313 31.59351563 -38.01171875 32.203125 C-38.34171875 31.543125 -38.67171875 30.883125 -39.01171875 30.203125 C-34.69148178 23.18909321 -29.72977501 17.12473666 -24.01171875 11.203125 C-22.81675781 9.9346875 -22.81675781 9.9346875 -21.59765625 8.640625 C-14.68160281 1.79043873 -9.43688111 0.63646928 0 0 Z " fill="#EA7C84" transform="translate(164.01171875,176.796875)"/>
<path d="M0 0 C-2.33333333 0 -4.66666667 0 -7 0 C-7 -0.66 -7 -1.32 -7 -2 C-11.02069425 -2.08765069 -15.0411401 -2.14061018 -19.0625 -2.1875 C-20.19623047 -2.21263672 -21.32996094 -2.23777344 -22.49804688 -2.26367188 C-28.83892247 -2.31913143 -33.41748764 -2.07562008 -39 1 C-39.66128906 1.32742187 -40.32257813 1.65484375 -41.00390625 1.9921875 C-45.06126901 4.29034285 -48.49481484 6.92227644 -52 10 C-51.72377877 6.80891791 -50.94366933 5.94873376 -48.5234375 3.74609375 C-33.62739712 -7.1764371 -16.03402116 -12.23648983 0 0 Z " fill="#BC5C62" transform="translate(362,147)"/>
<path d="M0 0 C0 0.99 0 1.98 0 3 C-6.40358605 5.26656139 -12.6711402 7.28443169 -19.36499023 8.47045898 C-21.99050186 8.99809122 -24.514332 9.68467897 -27.0859375 10.4296875 C-32.86181138 12.02638457 -38.6525935 13.09802231 -44.5625 14.0625 C-46.50151337 14.38545273 -48.44031795 14.70966165 -50.37890625 15.03515625 C-51.31492676 15.19129395 -52.25094727 15.34743164 -53.21533203 15.50830078 C-56.73803103 16.13031689 -60.23234659 16.86457688 -63.72631836 17.63061523 C-66.18569652 18.03016846 -68.51263248 18.06175192 -71 18 C-68.36059663 16.58330465 -65.99553736 15.65361118 -63.0625 15.0625 C-59.45429417 14.32187432 -55.87236887 13.5008823 -52.2890625 12.6484375 C-47.01926665 11.42667645 -41.73728496 10.33590658 -36.42578125 9.31640625 C-35.68366898 9.17302322 -34.9415567 9.0296402 -34.17695618 8.88191223 C-31.11699068 8.29143366 -28.0569232 7.70210384 -24.99389648 7.12768555 C-16.29872402 5.49165045 -8.05636339 3.82574485 0 0 Z " fill="#291112" transform="translate(509,344)"/>
<path d="M0 0 C1.24609375 1.43359375 1.24609375 1.43359375 1.24609375 3.43359375 C1.90609375 3.43359375 2.56609375 3.43359375 3.24609375 3.43359375 C4.75390625 5.11328125 4.75390625 5.11328125 6.37109375 7.30859375 C6.90992188 8.02789062 7.44875 8.7471875 8.00390625 9.48828125 C9.24609375 11.43359375 9.24609375 11.43359375 9.24609375 13.43359375 C8.58609375 13.43359375 7.92609375 13.43359375 7.24609375 13.43359375 C5.80078125 11.7109375 5.80078125 11.7109375 4.12109375 9.37109375 C-1.96634511 1.33466199 -8.68266264 -5.00723402 -18.94140625 -6.50390625 C-28.05485169 -7.09826139 -35.33968358 -3.49643943 -42.1953125 2.26171875 C-43.75390625 3.43359375 -43.75390625 3.43359375 -45.75390625 3.43359375 C-45.75390625 2.77359375 -45.75390625 2.11359375 -45.75390625 1.43359375 C-31.14400643 -10.99080876 -14.70254501 -13.13078074 0 0 Z " fill="#F66373" transform="translate(185.75390625,197.56640625)"/>
<path d="M0 0 C1.32 0.33 2.64 0.66 4 1 C3.34 1.66 2.68 2.32 2 3 C1.78274551 5.52746141 1.68862421 7.94875779 1.68115234 10.47900391 C1.67110672 11.24982803 1.6610611 12.02065216 1.65071106 12.81483459 C1.6197615 15.36873614 1.60281149 17.92253232 1.5859375 20.4765625 C1.56723529 22.24491286 1.5476626 24.01325422 1.5272522 25.78158569 C1.47582479 30.4405792 1.43625602 35.09960169 1.39910889 39.75872803 C1.35913557 44.51110054 1.30801288 49.26335146 1.2578125 54.015625 C1.16092761 63.34367327 1.0775933 72.67177128 1 82 C11.23 82 21.46 82 32 82 C32 82.33 32 82.66 32 83 C21.44 83 10.88 83 0 83 C0 55.61 0 28.22 0 0 Z " fill="#2D2835" transform="translate(88,89)"/>
<path d="M0 0 C5.13658177 3.87910997 9.94143232 8.15894514 12.3203125 14.30078125 C11.9903125 14.96078125 11.6603125 15.62078125 11.3203125 16.30078125 C10.48125685 15.18004263 9.64923419 14.05403578 8.8203125 12.92578125 C8.35625 12.29929688 7.8921875 11.6728125 7.4140625 11.02734375 C6.3203125 9.30078125 6.3203125 9.30078125 6.3203125 7.30078125 C5.3303125 6.97078125 4.3403125 6.64078125 3.3203125 6.30078125 C3.3203125 5.64078125 3.3203125 4.98078125 3.3203125 4.30078125 C2.6190625 4.03265625 1.9178125 3.76453125 1.1953125 3.48828125 C-1.6796875 2.30078125 -1.6796875 2.30078125 -4.7421875 0.73828125 C-11.22726346 -2.43526656 -18.52040637 -2.87101064 -25.48046875 -0.91015625 C-28.90284789 0.41823388 -31.90302671 1.71231675 -34.83984375 3.9375 C-36.6796875 5.30078125 -36.6796875 5.30078125 -38.6796875 5.30078125 C-38.6796875 4.64078125 -38.6796875 3.98078125 -38.6796875 3.30078125 C-26.9346425 -5.39575106 -12.8124088 -8.12448663 0 0 Z " fill="#F86776" transform="translate(356.6796875,159.69921875)"/>
<path d="M0 0 C6.93359375 -0.09765625 6.93359375 -0.09765625 9 0 C10 1 10 1 10.1875 4.4375 C10 8 10 8 8 10 C5.31160615 10.26991906 2.70858064 10.08737357 0 10 C0 6.7 0 3.4 0 0 Z " fill="#E4313B" transform="translate(358,431)"/>
<path d="M0 0 C6.8359375 -0.29296875 6.8359375 -0.29296875 9 0 C11 3 11 3 10.6875 5.625 C10 8 10 8 9 9 C5.99668982 9.14193337 3.00782866 9.04236378 0 9 C0 6.03 0 3.06 0 0 Z " fill="#D52A27" transform="translate(398,431)"/>
<path d="M0 0 C3.37634582 1.40438522 4.98197985 2.90498603 7 5.9375 C7.474375 6.62714844 7.94875 7.31679687 8.4375 8.02734375 C14.22035081 19.02921741 14.50396979 28.53408734 14.25 40.6875 C14.22989374 42.37172343 14.2116503 44.05597017 14.1953125 45.74023438 C14.15166723 49.82740858 14.08287227 53.91344071 14 58 C13.67 58 13.34 58 13 58 C12.67 49.42 12.34 40.84 12 32 C10.68 31.67 9.36 31.34 8 31 C8 30.01 8 29.02 8 28 C8.99 28 9.98 28 11 28 C12.82327761 23.81401353 10.98451695 20.23303947 9.4375 16.25 C9.16663574 15.53714844 8.89577148 14.82429687 8.61669922 14.08984375 C6.46890455 8.67269708 3.85660514 4.40754874 0 0 Z " fill="#D14E57" transform="translate(362,148)"/>
<path d="M0 0 C0.66022156 0.00565979 1.32044312 0.01131958 2.00067139 0.01715088 C4.10015763 0.0394627 6.1979087 0.08964186 8.296875 0.140625 C9.7239336 0.16069706 11.15101908 0.17894661 12.578125 0.1953125 C16.06826793 0.23930807 19.55740199 0.30829624 23.046875 0.390625 C22.716875 1.710625 22.386875 3.030625 22.046875 4.390625 C21.551875 3.400625 21.551875 3.400625 21.046875 2.390625 C16.79710454 2.27451105 12.54774163 2.20340151 8.296875 2.140625 C7.0903125 2.10710937 5.88375 2.07359375 4.640625 2.0390625 C3.48046875 2.02617187 2.3203125 2.01328125 1.125 2 C-0.47746582 1.9685791 -0.47746582 1.9685791 -2.11230469 1.93652344 C-5.01066154 2.20286377 -5.01066154 2.20286377 -7.29492188 3.91210938 C-9.58294159 7.33201163 -9.55593129 10.45481762 -9.5625 14.4375 C-9.57903625 15.20870178 -9.59557251 15.97990356 -9.61260986 16.7744751 C-9.66107093 19.22993954 -9.68245537 21.68478484 -9.703125 24.140625 C-9.73128646 25.80862487 -9.76121414 27.47659592 -9.79296875 29.14453125 C-9.86682872 33.2265115 -9.91641436 37.30814845 -9.953125 41.390625 C-10.283125 41.390625 -10.613125 41.390625 -10.953125 41.390625 C-11.05208326 36.19455514 -11.12463493 30.99903502 -11.17285156 25.80224609 C-11.1929535 24.03489628 -11.22023972 22.26761287 -11.25488281 20.50048828 C-11.30346509 17.95849215 -11.32610726 15.41737604 -11.34375 12.875 C-11.36439514 12.08631531 -11.38504028 11.29763062 -11.40631104 10.48504639 C-11.40770762 7.06220528 -11.21567296 4.80444445 -9.36328125 1.88476562 C-6.0951705 -0.14125117 -3.83146698 -0.06494012 0 0 Z " fill="#C6C6C9" transform="translate(76.953125,211.609375)"/>
<path d="M0 0 C0.33 0 0.66 0 1 0 C1.495 7.92 1.495 7.92 2 16 C8.93 16.33 15.86 16.66 23 17 C23 17.33 23 17.66 23 18 C15.74 18 8.48 18 1 18 C1 23.94 1 29.88 1 36 C0.67 36 0.34 36 0 36 C0 30.39 0 24.78 0 19 C-6.93 18.67 -13.86 18.34 -21 18 C-21 17.67 -21 17.34 -21 17 C-14.07 17 -7.14 17 0 17 C0 11.39 0 5.78 0 0 Z " fill="#828287" transform="translate(254,70)"/>
<path d="M0 0 C0.33 0 0.66 0 1 0 C1.12590011 4.81558235 1.21538977 9.63015741 1.2746582 14.44702148 C1.29942619 16.07707448 1.33325131 17.70702119 1.37719727 19.33666992 C1.69119116 31.30168421 0.41378694 41.79732816 -4 53 C-4.66 53.66 -5.32 54.32 -6 55 C-5.44775223 50.59352304 -4.62328643 46.41313739 -3.54003906 42.09887695 C-0.17376316 28.23657715 -0.17033585 14.19808023 0 0 Z " fill="#9C1C02" transform="translate(511,390)"/>
<path d="M0 0 C0.33 0 0.66 0 1 0 C1 6.27 1 12.54 1 19 C6.94 19 12.88 19 19 19 C19 19.33 19 19.66 19 20 C13.06 20 7.12 20 1 20 C1 26.27 1 32.54 1 39 C0.67 39 0.34 39 0 39 C0 32.73 0 26.46 0 20 C-7.26 20 -14.52 20 -22 20 C-22 19.67 -22 19.34 -22 19 C-11.605 18.505 -11.605 18.505 -1 18 C-0.67 12.06 -0.34 6.12 0 0 Z " fill="#A3A2A6" transform="translate(421,239)"/>
<path d="M0 0 C0.33 0.66 0.66 1.32 1 2 C0.40832031 2.71285156 -0.18335938 3.42570313 -0.79296875 4.16015625 C-5.91393411 10.32132862 -5.91393411 10.32132862 -10.6875 16.75 C-12.71401478 19.59807483 -14.81532294 22.19813284 -17.109375 24.82421875 C-19.72740798 27.83712034 -22.29936884 30.88834074 -24.875 33.9375 C-25.85154867 35.09245961 -26.82811012 36.24740841 -27.8046875 37.40234375 C-28.52914063 38.25957031 -29.25359375 39.11679688 -30 40 C-30 36.594426 -29.63793578 36.19532698 -27.54296875 33.69921875 C-27.0126001 33.05847412 -26.48223145 32.41772949 -25.93579102 31.75756836 C-25.35885498 31.0744458 -24.78191895 30.39132324 -24.1875 29.6875 C-22.99114157 28.24565888 -21.79584803 26.80293358 -20.6015625 25.359375 C-19.99731445 24.63169922 -19.39306641 23.90402344 -18.77050781 23.15429688 C-16.14456589 19.95913533 -13.60125324 16.70205686 -11.0625 13.4375 C-7.48665741 8.85471141 -3.84295833 4.36227702 0 0 Z " fill="#C14751" transform="translate(309,155)"/>
<path d="M0 0 C-0.4846875 0.27972656 -0.969375 0.55945313 -1.46875 0.84765625 C-6.83561879 4.05745662 -11.42363955 7.74979441 -16 12 C-16.763125 12.70125 -17.52625 13.4025 -18.3125 14.125 C-20.06811886 15.95551692 -20.06811886 15.95551692 -21.3125 18.1875 C-23.84126263 22.40210438 -26.94437187 26.15744298 -30 30 C-30.33 29.34 -30.66 28.68 -31 28 C-24.95446682 18.18489908 -15.01194186 3.36121075 -3.83203125 -0.80859375 C-2 -1 -2 -1 0 0 Z " fill="#BC6369" transform="translate(156,179)"/>
<path d="M0 0 C1 3 1 3 0.3190918 4.79345703 C-0.05046631 5.44169434 -0.42002441 6.08993164 -0.80078125 6.7578125 C-1.20103516 7.46550781 -1.60128906 8.17320312 -2.01367188 8.90234375 C-2.44228516 9.63582031 -2.87089844 10.36929687 -3.3125 11.125 C-3.93801758 12.23681641 -3.93801758 12.23681641 -4.57617188 13.37109375 C-7.7228139 18.86140695 -7.7228139 18.86140695 -10 20 C-10 19.01 -10 18.02 -10 17 C-10.78375 17.515625 -11.5675 18.03125 -12.375 18.5625 C-13.24125 19.036875 -14.1075 19.51125 -15 20 C-15.66 19.67 -16.32 19.34 -17 19 C-16.375 17.125 -16.375 17.125 -15 15 C-11.875 13.75 -11.875 13.75 -9 13 C-9 12.34 -9 11.68 -9 11 C-7.35 10.67 -5.7 10.34 -4 10 C-4.0825 9.0925 -4.165 8.185 -4.25 7.25 C-4 4 -4 4 -2 1.625 C-1.34 1.08875 -0.68 0.5525 0 0 Z " fill="#B11A02" transform="translate(504,445)"/>
<path d="M0 0 C-7.85663566 2.05526091 -15.7200464 3.51523882 -23.75 4.6875 C-24.62422607 4.81874268 -25.49845215 4.94998535 -26.39916992 5.08520508 C-31.98826369 5.8721858 -37.35617133 6.11995992 -43 6 C-43 5.67 -43 5.34 -43 5 C-35.63302932 3.20496084 -28.23727797 2.0848134 -20.72338867 1.08520508 C-18.67308703 0.8105694 -16.62472572 0.52367741 -14.57617188 0.23632812 C-13.27615234 0.06166016 -11.97613281 -0.11300781 -10.63671875 -0.29296875 C-9.45811279 -0.4530542 -8.27950684 -0.61313965 -7.06518555 -0.77807617 C-4.34129133 -0.97529002 -2.55310417 -0.87646222 0 0 Z " fill="#55140B" transform="translate(451,359)"/>
<path d="M0 0 C0.87333984 -0.020625 1.74667969 -0.04125 2.64648438 -0.0625 C8.56183491 -0.0978419 12.95585171 0.67688499 18.3125 3.25 C18.9725 4.24 19.6325 5.23 20.3125 6.25 C18.0025 5.92 15.6925 5.59 13.3125 5.25 C13.3125 4.59 13.3125 3.93 13.3125 3.25 C9.22918161 3.22096108 5.1458898 3.20318811 1.0625 3.1875 C-0.09636719 3.17912109 -1.25523437 3.17074219 -2.44921875 3.16210938 C-3.56425781 3.15888672 -4.67929687 3.15566406 -5.828125 3.15234375 C-6.85454102 3.14710693 -7.88095703 3.14187012 -8.93847656 3.13647461 C-11.36375656 3.23663049 -13.37447361 3.55076922 -15.6875 4.25 C-11.22151273 -0.6413194 -6.19915895 0.03580742 0 0 Z " fill="#FB7683" transform="translate(341.6875,141.75)"/>
<path d="M0 0 C1.17816532 3.53449597 0.81161248 4.09806763 -0.625 7.39453125 C-1.18586304 8.69547729 -1.18586304 8.69547729 -1.75805664 10.02270508 C-2.16789795 10.9433374 -2.57773926 11.86396973 -3 12.8125 C-3.40919678 13.74924561 -3.81839355 14.68599121 -4.23999023 15.65112305 C-7.58143051 23.22960051 -11.16350965 30.6600908 -15 38 C-16.1632929 35.16616438 -16.052011 34.12984437 -14.890625 31.23046875 C-14.34921875 30.22628906 -13.8078125 29.22210938 -13.25 28.1875 C-10.96897514 23.84568716 -8.893266 19.52737523 -7 15 C-2.45049885 4.82194935 -2.45049885 4.82194935 0 0 Z " fill="#801512" transform="translate(87,277)"/>
<path d="M0 0 C0.33 0 0.66 0 1 0 C1.06667944 12.3857063 0.87744412 24.74533954 0.5 37.125 C0.45158345 38.77733675 0.40340551 40.42968051 0.35546875 42.08203125 C0.23971091 46.05477315 0.12079044 50.02740806 0 54 C-0.33 54 -0.66 54 -1 54 C-1.16742247 48.62501726 -1.32800169 43.24989076 -1.48217773 37.87451172 C-1.53562295 36.04502834 -1.59095425 34.21559907 -1.64819336 32.38623047 C-1.73003411 29.76020984 -1.80514096 27.13407081 -1.87890625 24.5078125 C-1.90594131 23.68693146 -1.93297638 22.86605042 -1.96083069 22.02029419 C-2.11387171 16.22774341 -2.11387171 16.22774341 -1 14 C-0.76970044 11.62876754 -0.58880058 9.25258057 -0.4375 6.875 C-0.35371094 5.59367187 -0.26992188 4.31234375 -0.18359375 2.9921875 C-0.09271484 1.51105469 -0.09271484 1.51105469 0 0 Z " fill="#B40D12" transform="translate(373,252)"/>
<path d="M0 0 C-7.3608536 3.92466565 -15.73817899 5.22785127 -23.875 6.6875 C-24.96300903 6.88460571 -24.96300903 6.88460571 -26.07299805 7.08569336 C-29.7536818 7.72082351 -33.26361505 8.15385115 -37 8 C-34.36059663 6.58330465 -31.99553736 5.65361118 -29.0625 5.0625 C-24.0589923 4.0187219 -19.08813688 2.85593458 -14.11328125 1.68359375 C-9.36040461 0.63998846 -4.87470864 -0.14337378 0 0 Z " fill="#3C150F" transform="translate(475,354)"/>
<path d="M0 0 C-3.14838426 3.14838426 -7.09737966 3.28932136 -11.375 4.125 C-12.72416504 4.39328613 -12.72416504 4.39328613 -14.10058594 4.66699219 C-20.8315519 5.93584574 -27.14555406 6.50154482 -34 6 C-34 5.67 -34 5.34 -34 5 C-32.72125 4.80664062 -31.4425 4.61328125 -30.125 4.4140625 C-28.41663655 4.15123735 -26.70830489 3.88820549 -25 3.625 C-23.74123047 3.43550781 -23.74123047 3.43550781 -22.45703125 3.2421875 C-18.45829678 2.62222867 -14.54172862 1.92994044 -10.625 0.90625 C-6.82188866 -0.04452784 -3.88361234 -0.16181718 0 0 Z " fill="#32120F" transform="translate(512,304)"/>
<path d="M0 0 C1.19799449 4.14659373 0.8896192 7.99369047 0.5625 12.25 C0.51029297 12.99507812 0.45808594 13.74015625 0.40429688 14.5078125 C0.2751783 16.33894861 0.13834886 18.16953813 0 20 C-4.95 20 -9.9 20 -15 20 C-15 19.67 -15 19.34 -15 19 C-10.71 19 -6.42 19 -2 19 C-2.02320313 17.87980469 -2.04640625 16.75960937 -2.0703125 15.60546875 C-2.08907237 14.13281916 -2.10727234 12.66016237 -2.125 11.1875 C-2.14175781 10.44951172 -2.15851563 9.71152344 -2.17578125 8.95117188 C-2.21074628 5.08753574 -2.19397555 3.29096332 0 0 Z " fill="#5D5D65" transform="translate(262,129)"/>
<path d="M0 0 C0.66 0 1.32 0 2 0 C2.36552803 1.41377782 2.71695495 2.83120576 3.0625 4.25 C3.25972656 5.03890625 3.45695313 5.8278125 3.66015625 6.640625 C4.01497267 9.10394822 3.76877544 10.65604132 3 13 C2.67 10.69 2.34 8.38 2 6 C-1.48539917 6.64544429 -4.02819057 8.10134397 -7 10 C-5.32598022 6.04322598 -2.86850715 3.15535787 0 0 Z " fill="#542B2E" transform="translate(162,221)"/>
<path d="M0 0 C2.66666667 2.66666667 5.33333333 5.33333333 8 8 C8.33 6.68 8.66 5.36 9 4 C10.60355101 7.50776784 11.22036864 10.14354879 11 14 C6.45721964 10.40150545 2.87739592 7.06421681 0 2 C0 1.34 0 0.68 0 0 Z " fill="#E74957" transform="translate(195,211)"/>
<path d="M0 0 C0.33 0.66 0.66 1.32 1 2 C-1.4950175 7.14597359 -5.45646031 11.54387748 -9 16 C-9.33 15.34 -9.66 14.68 -10 14 C-6.84577733 9.17403931 -3.71080883 4.42442592 0 0 Z " fill="#C3424D" transform="translate(135,193)"/>
<path d="M0 0 C3 3.625 3 3.625 3 7 C-1.29 7 -5.58 7 -10 7 C-10 6.34 -10 5.68 -10 5 C-6.7 4.67 -3.4 4.34 0 4 C0 2.68 0 1.36 0 0 Z " fill="#E5AEA5" transform="translate(419,457)"/>
<path d="M0 0 C1.06615385 3.19846156 0.95342597 4.30260922 0.25 7.5 C0.09015625 8.2734375 -0.0696875 9.046875 -0.234375 9.84375 C-1.0837789 12.23594873 -2.09135294 13.36401681 -4 15 C-4.50610724 8.92671312 -3.04157942 5.22771463 0 0 Z " fill="#6B1E14" transform="translate(70,315)"/>
<path d="M0 0 C4.06524582 3.88046192 5.7491844 7.51565469 7 13 C6.55078125 15.22265625 6.55078125 15.22265625 6 17 C4.99580363 14.5433053 3.99649499 12.08481647 3 9.625 C2.71382812 8.92632812 2.42765625 8.22765625 2.1328125 7.5078125 C0 2.2265625 0 2.2265625 0 0 Z " fill="#BB585D" transform="translate(195,195)"/>
<path d="M0 0 C-1.45044271 4.10958767 -3.51110752 7.43258745 -6 11 C-6.33 10.01 -6.66 9.02 -7 8 C-6.34 8 -5.68 8 -5 8 C-5.0928125 6.8553125 -5.0928125 6.8553125 -5.1875 5.6875 C-5 3 -5 3 -3.625 1.1875 C-2 0 -2 0 0 0 Z " fill="#36161A" transform="translate(299,447)"/>
<path d="M0 0 C2.21399303 3.79541663 3.00980198 7.75629421 4 12 C3.01 12 2.02 12 1 12 C-0.3271261 8.0186217 -0.06915913 4.14954773 0 0 Z " fill="#6B2524" transform="translate(214,253)"/>
<path d="M0 0 C4.47959418 1.14185734 8.14522751 2.43015167 12 5 C9.66666667 5 7.33333333 5 5 5 C5 4.34 5 3.68 5 3 C3.35 2.67 1.7 2.34 0 2 C0 1.34 0 0.68 0 0 Z " fill="#E56C76" transform="translate(350,142)"/>
<path d="M0 0 C0.66 0.33 1.32 0.66 2 1 C0.41641358 4.16717283 -0.45263699 5.73268318 -3.6875 7.3125 C-4.450625 7.539375 -5.21375 7.76625 -6 8 C-4.26440562 4.942048 -2.61527381 2.36620011 0 0 Z " fill="#3D262A" transform="translate(327,205)"/>
<path d="M0 0 C-1.1858237 3.37503669 -2.27573689 5.64722731 -5 8 C-5.1875 5.125 -5.1875 5.125 -5 2 C-2 0 -2 0 0 0 Z " fill="#B20C02" transform="translate(499,457)"/>
<path d="M0 0 C1.21386936 3.64160808 0.6674695 4.33165469 -0.9375 7.6875 C-1.31777344 8.49574219 -1.69804688 9.30398438 -2.08984375 10.13671875 C-2.39019531 10.75160156 -2.69054687 11.36648438 -3 12 C-4.39746302 7.80761095 -2.84031875 5.89298197 -1 2 C-0.67 1.34 -0.34 0.68 0 0 Z " fill="#92171A" transform="translate(87,277)"/>
<path d="M0 0 C3.77545388 1.09068668 6.47043472 1.9083091 9 5 C5.30581799 5 3.22163822 3.71820705 0 2 C0 1.34 0 0.68 0 0 Z " fill="#C1666C" transform="translate(178,179)"/>
<path d="M0 0 C0.99 0.33 1.98 0.66 3 1 C-0.96 4.465 -0.96 4.465 -5 8 C-5.33 7.01 -5.66 6.02 -6 5 C-1.60546875 0.99609375 -1.60546875 0.99609375 0 0 Z " fill="#D6676F" transform="translate(316,149)"/>
<path d="M0 0 C2 0.3125 2 0.3125 4 1 C4.33 1.66 4.66 2.32 5 3 C1.7 3 -1.6 3 -5 3 C-3.68 2.34 -2.36 1.68 -1 1 C-0.67 0.67 -0.34 0.34 0 0 Z " fill="#1B131D" transform="translate(450,386)"/>
<path d="M0 0 C1.32 0.33 2.64 0.66 4 1 C2.35 2.98 0.7 4.96 -1 7 C-1.625 5.1875 -1.625 5.1875 -2 3 C-1.34 2.01 -0.68 1.02 0 0 Z " fill="#D1D1D3" transform="translate(68,213)"/>
<path d="M0 0 C0.33 1.32 0.66 2.64 1 4 C-0.32 4.33 -1.64 4.66 -3 5 C-3.66 3.68 -4.32 2.36 -5 1 C-4.01 1.33 -3.02 1.66 -2 2 C-1.34 1.34 -0.68 0.68 0 0 Z " fill="#F95B6C" transform="translate(374,175)"/>
</svg>
